<svg width="1440" height="879" viewBox="0 0 1440 879" fill="none" xmlns="http://www.w3.org/2000/svg">
<rect width="1444" height="380" transform="matrix(-1 8.74228e-08 8.74228e-08 1 1438 380)" fill="url(#paint0_linear_1483_653)" fill-opacity="0.2"/>
<rect x="1440" y="380" width="1444" height="380" transform="rotate(-180 1440 380)" fill="url(#paint1_linear_1483_653)" fill-opacity="0.2"/>
<g clip-path="url(#clip0_1483_653)">
<path d="M1186.64 176.66L1191.63 217.232L1228.65 233.812L1260.69 209.82L1255.69 169.248L1218.67 152.668L1186.64 176.66Z" fill="#50C43F" fill-opacity="0.26"/>
</g>
<path d="M1257.45 414.046L1409.37 466.426L1531.81 364.219L1502.33 209.632L1350.41 157.252L1227.97 259.459L1257.45 414.046Z" stroke="#51C43F" stroke-width="5" stroke-miterlimit="10"/>
<path d="M1238.79 503.334L1390.72 555.714L1513.16 453.507L1483.68 298.92L1331.76 246.54L1209.31 348.747L1238.79 503.334Z" fill="#50C43F" fill-opacity="0.23"/>
<path d="M1360.06 596.619L1511.98 649L1634.43 546.793L1604.95 392.205L1453.03 339.825L1330.58 442.032L1360.06 596.619Z" stroke="#51C43F" stroke-opacity="0.33" stroke-width="11" stroke-miterlimit="10"/>
<path d="M1283.65 594.659L1309.64 603.69L1330.58 586.068L1325.54 559.415L1299.55 550.384L1278.61 568.006L1283.65 594.659Z" fill="#50C43F" fill-opacity="0.41"/>
<g clip-path="url(#clip1_1483_653)">
<path d="M377.859 535.15C369.079 531.73 358.789 530.72 349.809 534C341.389 537.07 334.259 544.18 333.189 553.33C332.209 561.61 336.619 569.67 344.759 572.25C350.899 574.2 359.999 572.7 363.779 567C365.669 564.14 365.559 560.22 363.639 557.4C361.419 554.15 357.849 552.08 354.169 550.88C346.589 548.4 337.189 549.17 331.939 555.76C326.209 562.95 326.249 573.19 328.149 581.75C330.229 591.13 335.099 599.54 342.509 605.72C350.379 612.28 359.999 616.31 369.619 619.56C381.769 623.66 394.179 626.89 406.689 629.73C409.809 630.44 412.939 631.12 416.069 631.8C417.639 632.14 418.309 629.73 416.729 629.39C404.959 626.86 393.219 624.16 381.669 620.75C372.079 617.93 362.339 614.89 353.519 610.1C345.359 605.68 338.229 599.58 334.069 591.16C330.439 583.83 328.549 574.87 329.949 566.74C330.619 562.83 332.139 559.01 334.959 556.14C337.469 553.59 340.869 552.42 344.389 552.17C348.119 551.9 351.989 552.51 355.419 554.02C358.279 555.28 361.659 557.5 362.459 560.73C364.129 567.48 355.759 570.4 350.519 570.51C343.289 570.67 337.159 565.9 335.839 558.72C334.339 550.59 339.039 542.93 345.799 538.72C353.249 534.08 362.669 533.68 371.039 535.64C373.149 536.13 375.219 536.78 377.239 537.57C378.739 538.15 379.389 535.74 377.899 535.16L377.859 535.15Z" fill="#1D1D1B"/>
<path d="M418.428 616.59C419.688 619.68 421.008 622.75 422.418 625.77C423.678 628.46 425.148 631.03 426.598 633.62C427.388 635.02 429.548 633.76 428.758 632.36C427.338 629.83 425.908 627.33 424.678 624.7C423.318 621.81 422.048 618.87 420.848 615.92C420.598 615.3 420.018 614.85 419.308 615.05C418.718 615.22 418.178 615.96 418.438 616.59H418.428Z" fill="#1D1D1B"/>
<path d="M427.11 631.83C423.99 633.06 420.89 634.36 417.84 635.75C415.15 636.97 412.58 638.41 409.99 639.82C408.58 640.59 409.84 642.75 411.25 641.98C413.78 640.6 416.28 639.2 418.9 638C421.82 636.66 424.78 635.42 427.77 634.24C428.4 633.99 428.83 633.41 428.64 632.7C428.48 632.1 427.73 631.58 427.1 631.83H427.11Z" fill="#1D1D1B"/>
</g>
<g clip-path="url(#clip2_1483_653)">
<path d="M1055.07 535.15C1063.85 531.73 1074.14 530.72 1083.12 534C1091.54 537.07 1098.67 544.18 1099.74 553.33C1100.72 561.61 1096.31 569.67 1088.17 572.25C1082.03 574.2 1072.93 572.7 1069.15 567C1067.26 564.14 1067.37 560.22 1069.29 557.4C1071.51 554.15 1075.08 552.08 1078.76 550.88C1086.34 548.4 1095.74 549.17 1100.99 555.76C1106.72 562.95 1106.68 573.19 1104.78 581.75C1102.7 591.13 1097.83 599.54 1090.42 605.72C1082.55 612.28 1072.93 616.31 1063.31 619.56C1051.16 623.66 1038.75 626.89 1026.24 629.73C1023.12 630.44 1019.99 631.12 1016.86 631.8C1015.29 632.14 1014.62 629.73 1016.2 629.39C1027.97 626.86 1039.71 624.16 1051.26 620.75C1060.85 617.93 1070.59 614.89 1079.41 610.1C1087.57 605.68 1094.7 599.58 1098.86 591.16C1102.49 583.83 1104.38 574.87 1102.98 566.74C1102.31 562.83 1100.79 559.01 1097.97 556.14C1095.46 553.59 1092.06 552.42 1088.54 552.17C1084.81 551.9 1080.94 552.51 1077.51 554.02C1074.65 555.28 1071.27 557.5 1070.47 560.73C1068.8 567.48 1077.17 570.4 1082.41 570.51C1089.64 570.67 1095.77 565.9 1097.09 558.72C1098.59 550.59 1093.89 542.93 1087.13 538.72C1079.68 534.08 1070.26 533.68 1061.89 535.64C1059.78 536.13 1057.71 536.78 1055.69 537.57C1054.19 538.15 1053.54 535.74 1055.03 535.16L1055.07 535.15Z" fill="#1D1D1B"/>
<path d="M1014.5 616.59C1013.24 619.68 1011.92 622.75 1010.51 625.77C1009.25 628.46 1007.78 631.03 1006.33 633.62C1005.54 635.02 1003.38 633.76 1004.17 632.36C1005.59 629.83 1007.02 627.33 1008.25 624.7C1009.61 621.81 1010.88 618.87 1012.08 615.92C1012.33 615.3 1012.91 614.85 1013.62 615.05C1014.21 615.22 1014.75 615.96 1014.49 616.59H1014.5Z" fill="#1D1D1B"/>
<path d="M1005.82 631.83C1008.94 633.06 1012.04 634.36 1015.09 635.75C1017.78 636.97 1020.35 638.41 1022.94 639.82C1024.35 640.59 1023.09 642.75 1021.68 641.98C1019.15 640.6 1016.65 639.2 1014.03 638C1011.11 636.66 1008.15 635.42 1005.16 634.24C1004.53 633.99 1004.1 633.41 1004.29 632.7C1004.45 632.1 1005.2 631.58 1005.83 631.83H1005.82Z" fill="#1D1D1B"/>
</g>
<g clip-path="url(#clip3_1483_653)">
<path d="M287.792 399.66L282.8 440.232L245.774 456.812L213.741 432.82L218.733 392.248L255.759 375.668L287.792 399.66Z" fill="#50C43F" fill-opacity="0.26"/>
</g>
<path d="M216.98 637.046L65.0582 689.426L-57.3848 587.219L-27.9059 432.632L124.016 380.252L246.459 482.459L216.98 637.046Z" stroke="#51C43F" stroke-width="5" stroke-miterlimit="10"/>
<path d="M235.634 726.334L83.7125 778.714L-38.7305 676.507L-9.25155 521.92L142.67 469.54L265.113 571.747L235.634 726.334Z" fill="#50C43F" fill-opacity="0.23"/>
<path d="M114.365 819.619L-37.557 872L-160 769.793L-130.521 615.205L21.4008 562.825L143.844 665.032L114.365 819.619Z" stroke="#51C43F" stroke-opacity="0.33" stroke-width="11" stroke-miterlimit="10"/>
<path d="M190.775 817.659L164.788 826.69L143.844 809.068L148.886 782.415L174.873 773.384L195.817 791.006L190.775 817.659Z" fill="#50C43F" fill-opacity="0.41"/>
<defs>
<linearGradient id="paint0_linear_1483_653" x1="722" y1="380" x2="722" y2="0" gradientUnits="userSpaceOnUse">
<stop stop-color="white"/>
<stop offset="1" stop-color="#21FF00"/>
</linearGradient>
<linearGradient id="paint1_linear_1483_653" x1="2162" y1="760" x2="2162" y2="380" gradientUnits="userSpaceOnUse">
<stop stop-color="white"/>
<stop offset="1" stop-color="#21FF00"/>
</linearGradient>
<clipPath id="clip0_1483_653">
<rect width="417.119" height="421.117" fill="white" transform="matrix(-1 0 0 1 1589.12 0)"/>
</clipPath>
<clipPath id="clip1_1483_653">
<rect width="101.93" height="110.14" fill="white" transform="translate(327 532)"/>
</clipPath>
<clipPath id="clip2_1483_653">
<rect width="101.93" height="110.14" fill="white" transform="matrix(-1 0 0 1 1105.93 532)"/>
</clipPath>
<clipPath id="clip3_1483_653">
<rect width="417.119" height="421.117" fill="white" transform="translate(-114.691 223)"/>
</clipPath>
</defs>
</svg>
