<svg width="146" height="140" viewBox="0 0 146 140" fill="none" xmlns="http://www.w3.org/2000/svg">
<path d="M28.3531 81.6694C10.213 88.1559 4.12744 117.562 3.84271 127.005C5.59924 128.836 14.6153 133.12 36.6273 135.609C64.1422 138.721 101.657 123.542 126.245 117.393C150.834 111.244 136.014 96.1673 141.617 83.4944C147.219 70.8215 110.728 67.9803 80.8967 72.0225C48.4172 76.4235 51.0283 73.5613 28.3531 81.6694Z" fill="#51C43F"/>
<path d="M107.171 53.9688H116.608C118.072 53.9688 119.257 55.1296 119.257 56.5611V66.411C119.257 67.8425 118.072 69.0033 116.608 69.0033H111.216L125.002 96.1216V108.379C125.002 110.378 123.346 112 121.3 112H18.7019C16.6583 112 15 110.378 15 108.379V96.1216L28.786 69.0033H23.394C21.9308 69.0033 20.7456 67.8425 20.7456 66.411V56.5611C20.7456 55.1296 21.9308 53.9688 23.394 53.9688H32.7147" stroke="#1A1A1A" stroke-width="3.5" stroke-linecap="round" stroke-linejoin="round"/>
<path d="M118.15 96.1221H15" stroke="#1A1A1A" stroke-width="3.5" stroke-linecap="round" stroke-linejoin="round"/>
<path d="M91.2526 87.9785H48.7461" stroke="#1A1A1A" stroke-width="3.5" stroke-linecap="round" stroke-linejoin="round"/>
<path d="M105.549 69.0029H34.4512" stroke="#1A1A1A" stroke-width="3.5" stroke-linecap="round" stroke-linejoin="round"/>
<path d="M104.178 59.5898H35.8242" stroke="#1A1A1A" stroke-width="3.5" stroke-linecap="round" stroke-linejoin="round"/>
<path d="M101.601 59.5899V2H38.4023V59.5899" stroke="#1A1A1A" stroke-width="3.5" stroke-linecap="round" stroke-linejoin="round"/>
<path d="M90.4438 19.8369H49.5566" stroke="#1A1A1A" stroke-width="3.5" stroke-linecap="round" stroke-linejoin="round"/>
<path d="M90.4438 31.6445H49.5566" stroke="#1A1A1A" stroke-width="3.5" stroke-linecap="round" stroke-linejoin="round"/>
<path d="M78.3845 43.4531H49.5566" stroke="#1A1A1A" stroke-width="3.5" stroke-linecap="round" stroke-linejoin="round"/>
<path d="M32.8809 79.2793H43.9208" stroke="#1A1A1A" stroke-width="3.5" stroke-linecap="round" stroke-linejoin="round"/>
<path d="M53.5312 79.2793H64.5737" stroke="#1A1A1A" stroke-width="3.5" stroke-linecap="round" stroke-linejoin="round"/>
<path d="M74.1699 79.2793H85.2123" stroke="#1A1A1A" stroke-width="3.5" stroke-linecap="round" stroke-linejoin="round"/>
<path d="M94.8086 79.2793H105.851" stroke="#1A1A1A" stroke-width="3.5" stroke-linecap="round" stroke-linejoin="round"/>
</svg>
