<svg width="101" height="123" viewBox="0 0 101 123" fill="none" xmlns="http://www.w3.org/2000/svg">
<path d="M71.6983 114.477C83.514 111.134 92.7437 83.35 94.7356 74.1512C94.0669 72.0676 89.6461 66.3785 77.312 60.2912C61.8944 52.6821 37.1178 61.3243 21.6131 63.2684C6.10839 65.2125 11.8207 82.4314 6.10821 93.9109C0.39567 105.39 21.0916 114.223 39.2415 115.211C59.0024 116.287 56.9286 118.656 71.6983 114.477Z" fill="#51C43F"/>
<path d="M84.6507 71.8691C81.4114 72.3149 78.6111 72.9354 76.1907 73.6868C73.3416 74.5647 71.0186 75.6126 69.1269 76.7524C67.7332 77.5888 66.5705 78.4735 65.6054 79.3743C63.8215 81.0266 62.6947 82.7294 61.9888 84.2622C60.5694 87.33 60.8081 91.9489 60.8081 91.9489C60.8081 91.9489 61.3856 103.276 73.9627 99.0382" stroke="black" stroke-width="3" stroke-linecap="round" stroke-linejoin="round"/>
<path d="M98.0141 60.6402C96.9597 65.1052 95.5368 69.3847 93.7616 73.4113C91.6555 78.1911 89.2105 83.0865 84.541 85.8327C82.139 87.2476 79.3551 88.0276 76.6976 88.0276C75.1482 88.0276 73.7065 87.7613 72.4154 87.2395C70.8957 86.6262 69.6127 85.6552 68.604 84.348C67.8778 83.4146 67.2779 82.4086 66.8207 81.3596C66.818 81.3515 66.8126 81.3435 66.8099 81.3354C66.6674 81.018 66.5356 80.6818 66.4253 80.3402C66.4226 80.3294 66.4199 80.3214 66.4145 80.3106C65.2929 77.0291 65.6506 73.5969 67.4286 70.6354C67.5066 70.5036 67.5953 70.3665 67.7029 70.2051C69.497 67.4884 72.4558 65.393 75.8207 64.4624C75.8288 64.4624 75.8341 64.4597 75.8422 64.457C76.0251 64.4032 76.2322 64.3521 76.4662 64.2983C78.3088 63.876 80.2669 63.8168 82.1067 63.8168C82.5559 63.8168 83.0051 63.8195 83.4543 63.8249C83.9143 63.8276 84.3742 63.833 84.8342 63.833C86.6498 63.833 88.6026 63.7819 90.5903 63.4134C91.9137 63.1659 93.2048 62.8055 94.4233 62.3455C95.6444 61.8883 96.8441 61.3207 98.0168 60.6456M100.908 56.1187C100.887 56.1187 100.863 56.1267 100.841 56.1429C98.6893 57.9746 96.3115 59.4513 93.7024 60.4277C92.5808 60.8527 91.4134 61.1755 90.2084 61.4014C88.4331 61.7322 86.6336 61.786 84.8288 61.786C83.9196 61.786 83.0105 61.7726 82.1013 61.7726C80.0544 61.7726 78.0129 61.8425 76.0036 62.3052C75.7588 62.3617 75.5141 62.4235 75.2693 62.4935C71.517 63.5344 68.1171 65.8638 65.9949 69.0807C65.8819 69.2502 65.7743 69.4197 65.6694 69.5945C63.4853 73.2338 63.211 77.2685 64.4779 80.9723C64.6097 81.3785 64.7657 81.7819 64.9432 82.1773C65.465 83.3743 66.1482 84.5228 66.9874 85.5987C68.2732 87.261 69.8736 88.4149 71.6488 89.1304C73.2331 89.7733 74.9519 90.0665 76.6949 90.0665C79.7747 90.0665 82.9352 89.1465 85.5766 87.5892C90.6845 84.5847 93.3312 79.4499 95.6283 74.2317C98.1621 68.4782 99.9266 62.402 100.997 56.2182C101.011 56.1563 100.962 56.1133 100.908 56.1133V56.1187Z" fill="black"/>
<path d="M61.3231 85.2869C61.3231 85.2869 62.3936 74.1942 44.8535 71.499" stroke="black" stroke-width="3" stroke-linecap="round" stroke-linejoin="round"/>
<path d="M36.9496 65.2099C38.152 65.7613 39.3946 66.1567 40.6723 66.3934C42.0333 66.6463 43.3648 66.6812 44.5994 66.6812C44.8952 66.6812 45.1938 66.6812 45.4897 66.6759C45.7775 66.6759 46.0653 66.6705 46.3504 66.6705C46.9745 66.6705 47.7115 66.6786 48.4458 66.7431C48.9999 66.7915 49.4975 66.8668 49.9655 66.9717C50.6971 67.1385 51.4153 67.4021 52.1039 67.7545C53.5456 68.4915 54.7157 69.5566 55.4876 70.837C56.5635 72.631 56.7733 74.6349 56.0901 76.6361C55.7996 77.4942 55.3504 78.3226 54.7533 79.0946C53.3761 80.8726 51.3938 81.2464 49.9709 81.2464C49.6131 81.2464 49.2473 81.2222 48.8734 81.1765C47.577 81.0151 46.2832 80.574 45.1373 79.8988C42.2377 78.1908 40.683 75.0707 39.3408 72.0232C38.6361 70.4227 38.004 68.7282 37.4634 66.9906C37.2805 66.4015 37.111 65.8044 36.9496 65.2045M33.9882 60.9009C33.9532 60.9009 33.9209 60.9278 33.929 60.9681C34.3163 63.2087 34.8435 65.4278 35.5106 67.5958C36.0674 69.3791 36.7156 71.1355 37.4687 72.8489C38.9858 76.2892 40.7315 79.681 44.0991 81.6633C45.4601 82.4649 47.0282 83.0109 48.6179 83.2073C49.0671 83.2638 49.519 83.2934 49.9655 83.2934C52.4024 83.2934 54.7587 82.4219 56.3618 80.348C57.0961 79.3959 57.6556 78.3657 58.0187 77.2924C58.8526 74.8501 58.6723 72.1899 57.2333 69.7879C56.2408 68.1391 54.7506 66.8184 53.0292 65.9362C52.2061 65.5112 51.3238 65.1884 50.4147 64.9813C49.8176 64.8441 49.2177 64.7607 48.6152 64.7069C47.8621 64.6397 47.1036 64.6262 46.345 64.6262C45.7614 64.6262 45.175 64.6343 44.5913 64.6343C43.3997 64.6343 42.2081 64.5993 41.0381 64.3815C38.3967 63.8919 36.0566 62.6439 34.0285 60.9116C34.0151 60.9009 33.9989 60.8955 33.9855 60.8955L33.9882 60.9009Z" fill="black"/>
<path d="M48.6167 86.161V95.2175H48.6032C35.1893 95.2175 23.0933 89.5501 14.5936 80.4721C6.82548 72.1929 2.05649 61.076 2 48.8456C2 48.7676 2 48.6896 2 48.6116C2 36.2869 6.78244 25.0813 14.599 16.7483C23.0933 7.67031 35.1893 2.00293 48.6059 2.00293H48.6194C62.0334 2.00831 74.1239 7.67569 82.6291 16.7483C90.4402 25.0813 95.2226 36.2869 95.2226 48.6116C95.2226 48.6896 95.2226 48.7676 95.2173 48.8456C95.2065 51.6725 94.9429 54.4403 94.4426 57.1247" stroke="black" stroke-width="3" stroke-linecap="round" stroke-linejoin="round"/>
<path d="M48.6178 2.00293H48.607V2.00831C38.6198 7.10814 30.494 15.3228 25.5071 25.3745C22.0238 32.376 20.0684 40.2651 20.0684 48.6116C20.0684 48.6922 20.0684 48.7676 20.0737 48.8483C20.106 57.1059 22.0561 64.9171 25.5071 71.8513C30.494 81.9031 38.6198 90.1177 48.607 95.2175V95.2229H48.6178" stroke="black" stroke-width="3" stroke-linecap="round" stroke-linejoin="round"/>
<path d="M76.4475 57.1245C76.8913 54.4293 77.1253 51.6615 77.136 48.8453C77.136 48.7673 77.136 48.6893 77.136 48.6113C77.136 40.2676 75.1833 32.3784 71.7 25.3769C66.7212 15.3252 58.5953 7.1079 48.6162 2.01076C48.6162 2.01076 48.6126 2.00897 48.6055 2.00538V2" stroke="black" stroke-width="3" stroke-linecap="round" stroke-linejoin="round"/>
<path d="M48.6159 95.209C48.6159 95.209 48.6105 95.2144 48.6051 95.2144V95.2199H48.5996" stroke="black" stroke-width="3" stroke-linecap="round" stroke-linejoin="round"/>
<path d="M14.5938 16.7451C23.0962 25.8231 35.1894 31.4905 48.6061 31.4905C62.0228 31.4905 74.1214 25.8231 82.6238 16.7451" stroke="black" stroke-width="3" stroke-linecap="round" stroke-linejoin="round"/>
<path d="M14.5938 80.4722C17.7704 77.083 21.45 74.17 25.5089 71.8487C27.3998 70.7674 29.3741 69.8126 31.4184 69.0029" stroke="black" stroke-width="3" stroke-linecap="round" stroke-linejoin="round"/>
<path d="M95.2172 48.8457H2" stroke="black" stroke-width="3" stroke-linecap="round" stroke-linejoin="round"/>
<path d="M48.6172 2.00293V2.011V31.4911V48.8456V61.7189" stroke="black" stroke-width="3" stroke-linecap="round" stroke-linejoin="round"/>
<path d="M48.6172 86.1611V95.2096V95.2176" stroke="black" stroke-width="3" stroke-linecap="round" stroke-linejoin="round"/>
</svg>
