<svg width="1440" height="276" viewBox="0 0 1440 276" fill="none" xmlns="http://www.w3.org/2000/svg">
<path d="M70.4925 142.268L-60.9209 8.15236L-82.8401 29.9187L26.6142 141.673L-84.849 252.359L-62.9872 274.671L48.5249 163.985L48.5733 164.034L70.4925 142.268Z" fill="#51C43F" fill-opacity="0.1"/>
<path d="M135.426 142.268L4.01267 8.15236L-17.9065 29.9187L91.5478 141.673L-19.9154 252.359L1.94641 274.671L113.458 163.985L113.507 164.034L135.426 142.268Z" fill="#51C43F" fill-opacity="0.1"/>
<path d="M198.588 142.268L67.1748 8.15236L45.2556 29.9187L154.71 141.673L43.2467 252.359L65.1085 274.671L176.621 163.985L176.669 164.034L198.588 142.268Z" fill="#51C43F" fill-opacity="0.1"/>
<path d="M740.493 134.268L609.079 0.152363L587.16 21.9187L696.614 133.673L585.151 244.359L607.013 266.671L718.525 155.985L718.573 156.034L740.493 134.268Z" fill="#51C43F" fill-opacity="0.1"/>
<path d="M805.426 134.268L674.013 0.152363L652.094 21.9187L761.548 133.673L650.085 244.359L671.946 266.671L783.458 155.985L783.507 156.034L805.426 134.268Z" fill="#51C43F" fill-opacity="0.1"/>
<path d="M868.588 134.268L737.175 0.152363L715.256 21.9187L824.71 133.673L713.247 244.359L735.109 266.671L846.621 155.985L846.669 156.034L868.588 134.268Z" fill="#51C43F" fill-opacity="0.1"/>
<path d="M1349.49 134.268L1218.08 0.152363L1196.16 21.9187L1305.61 133.673L1194.15 244.359L1216.01 266.671L1327.52 155.985L1327.57 156.034L1349.49 134.268Z" fill="#51C43F" fill-opacity="0.1"/>
<path d="M1414.43 134.268L1283.01 0.152363L1261.09 21.9187L1370.55 133.673L1259.08 244.359L1280.95 266.671L1392.46 155.985L1392.51 156.034L1414.43 134.268Z" fill="#51C43F" fill-opacity="0.1"/>
<path d="M1477.59 134.268L1346.17 0.152363L1324.26 21.9187L1433.71 133.673L1322.25 244.359L1344.11 266.671L1455.62 155.985L1455.67 156.034L1477.59 134.268Z" fill="#51C43F" fill-opacity="0.1"/>
</svg>
