<svg width="114" height="132" viewBox="0 0 114 132" fill="none" xmlns="http://www.w3.org/2000/svg">
<path d="M72.9597 126.331C84.3192 126.053 90.9417 115.787 92.0845 112.293C91.2385 111.401 86.3677 108.735 73.6535 105.202C57.7607 100.786 34.0866 102.02 18.9621 101.41C3.83752 100.8 11.0135 108.184 6.4035 112.256C1.79346 116.328 23.0038 121.704 41.0004 123.721C60.5945 125.918 58.7603 126.678 72.9597 126.331Z" fill="#51C43F"/>
<path d="M11.3516 25.4695C11.9603 27.75 15.197 27.75 15.8077 25.4695M11.3516 25.4695L12.8009 25.0828C13.0128 25.8765 14.1444 25.8819 14.3588 25.0815L14.3595 25.0789C15.7682 19.8565 19.8326 15.7731 25.0299 14.3766L25.0426 14.3732L25.0553 14.37L25.0721 14.3658C25.8551 14.1457 25.8551 13.0342 25.0721 12.8141L25.0553 12.8099L25.0426 12.8067L25.0299 12.8033C19.8326 11.4068 15.7682 7.32343 14.3595 2.10104L14.3588 2.09842C14.1451 1.30053 13.0142 1.30053 12.8005 2.09841L12.7998 2.10104C11.3911 7.32343 7.32678 11.4068 2.12942 12.8033L2.11674 12.8067L2.104 12.8099L2.08725 12.8141C1.30425 13.0342 1.30425 14.1457 2.08725 14.3658L2.104 14.37L2.11869 14.3737L2.13331 14.3776C7.34281 15.7924 11.4104 19.8725 12.8009 25.0827L15.8077 25.4695M11.3516 25.4695C10.0993 20.7769 6.43485 17.1002 1.74019 15.8252L11.3516 25.4695ZM15.8077 25.4695C17.0786 20.7584 20.743 17.0816 25.4191 15.8252L15.8077 25.4695Z" stroke="black" stroke-width="3"/>
<path d="M50.1782 46.226L50.1774 46.2231L47.7161 37.0174C47.5024 36.2195 46.3715 36.2195 46.1579 37.0174L43.6966 46.2231L43.6957 46.2261C40.8846 56.6531 32.7734 64.8001 22.4082 67.5846L13.2027 70.0623C12.4064 70.2767 12.4064 71.4051 13.2026 71.6195C13.2026 71.6195 13.2027 71.6195 13.2027 71.6195L22.4089 74.0974L22.4122 74.0983C32.8078 76.9217 40.9245 85.0631 43.6968 95.4598L46.1579 104.665L50.1782 46.226ZM50.1782 46.226C52.9893 56.6553 61.1006 64.8001 71.4657 67.5846L80.6713 70.0623C81.4676 70.2767 81.4676 71.4052 80.6713 71.6195L71.4657 74.0972C71.4655 74.0973 71.4653 74.0974 71.465 74.0974C61.1002 76.8821 52.9893 85.029 50.1782 95.4558L50.1774 95.4588M50.1782 46.226L50.1774 95.4588M50.1774 95.4588L47.7161 104.665M50.1774 95.4588L47.7161 104.665M47.7161 104.665L47.7159 104.665C47.5019 105.462 46.372 105.462 46.158 104.665L47.7161 104.665Z" stroke="black" stroke-width="3"/>
<path d="M77.558 27.8173L77.5612 27.8164C84.4514 25.9595 89.8364 20.5978 91.6772 13.7454C91.6773 13.7451 91.6774 13.7449 91.6774 13.7446L92.4771 10.774L91.0287 10.384L92.4771 10.774C92.6915 9.97769 93.82 9.97769 94.0343 10.774L95.4709 10.3873L94.0343 10.774L94.834 13.7446C94.8341 13.7449 94.8342 13.7451 94.8343 13.7454C96.6751 20.5978 102.06 25.9595 108.95 27.8164L108.953 27.8173L111.901 28.6046C112.699 28.8183 112.699 29.9492 111.901 30.1629L108.954 30.9501C108.954 30.9501 108.954 30.9501 108.954 30.9501C108.954 30.9502 108.954 30.9502 108.953 30.9502C102.082 32.7829 96.7001 38.1481 94.8351 45.0191L94.8343 45.0221L94.0344 47.9932C93.8196 48.7905 92.6908 48.7872 92.4771 47.9936L91.0287 48.3835L92.4771 47.9935L91.6774 45.0229C91.6774 45.0227 91.6773 45.0224 91.6772 45.0221C89.8364 38.1697 84.4514 32.808 77.5612 30.9511L77.558 30.9502L74.6101 30.1629C74.61 30.1629 74.6099 30.1628 74.6098 30.1628C73.8097 29.9482 73.8153 28.8168 74.6089 28.605L74.6092 28.6049L77.558 27.8173Z" stroke="black" stroke-width="3"/>
</svg>
