<svg width="139" height="131" viewBox="0 0 139 131" fill="none" xmlns="http://www.w3.org/2000/svg">
<path d="M111.653 118.787C129.116 114.485 135.753 97.4691 136.294 92.0593C134.673 91.0696 126.208 88.9139 105.312 88.208C79.1933 87.3257 43.027 97.2304 19.4309 101.549C-4.16527 105.868 9.5194 114.007 3.82099 121.437C-1.87742 128.868 32.7992 129.303 61.3293 126.018C92.3918 122.441 89.8229 124.163 111.653 118.787Z" fill="#51C43F"/>
<g clip-path="url(#clip0_1463_603)">
<path d="M42.0548 103.357L42.0545 103.357C41.6082 103.423 41.2671 103.793 41.2388 104.247L40.8948 109.771L40.8327 110.769L39.8345 110.707L34.1936 110.355L33.1955 110.293L33.2578 109.295L33.6024 103.769L33.6024 103.769C33.6307 103.317 33.3387 102.906 32.9032 102.785C28.3883 101.526 24.3207 98.7763 21.4432 95.041C21.1633 94.678 20.6677 94.5642 20.2583 94.7679L20.2581 94.768L15.1851 97.2912L14.2893 97.7368L13.8442 96.8407L11.3286 91.7757L10.884 90.8806L11.7789 90.4355L16.9787 87.8495C17.3783 87.6507 17.5886 87.2021 17.4848 86.766L42.0548 103.357ZM42.0548 103.357C46.6922 102.668 51.069 100.446 54.3882 97.098C54.71 96.7735 55.2165 96.7215 55.5982 96.9745L42.0548 103.357ZM35.5741 59.9451L35.5743 59.9451C36.0207 59.8789 36.3617 59.5086 36.3901 59.0553C36.3901 59.0552 36.3901 59.0552 36.3901 59.0551L36.7848 52.7304L36.8471 51.7323L37.8451 51.7946L43.486 52.1465L44.484 52.2088L44.4218 53.2067L44.0278 59.5323L44.0278 59.5325C43.9995 59.9848 44.2916 60.3952 44.7269 60.5169C49.0687 61.7278 52.8868 64.224 55.7635 67.7286C56.0476 68.0745 56.5312 68.1776 56.9304 67.979L56.9305 67.9789L62.4957 65.2105L63.3915 64.7648L63.8366 65.6609L66.3529 70.7258L66.7976 71.6209L65.9027 72.0661L60.4768 74.7652L60.4202 74.7933C60.0466 75.0103 59.8616 75.4535 59.9765 75.876L35.5741 59.9451ZM35.5741 59.9451C31.1153 60.6068 27.0178 62.6082 23.7279 65.7283M35.5741 59.9451L23.7279 65.7283M23.7279 65.7283C23.4037 66.0351 22.911 66.0777 22.5389 65.8308M23.7279 65.7283L22.5389 65.8308M22.5389 65.8308C22.5389 65.8308 22.5388 65.8307 22.5387 65.8307L22.5389 65.8308ZM56.2495 65.3714L56.7583 65.9185L57.4272 65.5858L63.3942 62.6179C63.848 62.3925 64.3949 62.5601 64.6473 62.9912L64.6779 63.0527L68.9371 71.6272L68.9373 71.6276C69.1733 72.1021 68.9796 72.6784 68.5056 72.9141L68.5056 72.9141L62.719 75.7924L62.0314 76.1344L62.1844 76.887C62.6006 78.9334 62.7443 81.0296 62.613 83.1387C62.4965 85.0104 62.1638 86.851 61.6225 88.6289L61.4056 89.3412L62.0259 89.7532L67.2399 93.2158C67.24 93.2158 67.24 93.2158 67.24 93.2158C67.6811 93.5089 67.8016 94.1048 67.5086 94.5465L67.5085 94.5466L62.2178 102.525C62.0767 102.738 61.8574 102.885 61.6083 102.936C61.3593 102.986 61.1007 102.935 60.89 102.795L60.8895 102.794L55.8326 99.4358L55.1927 99.0109L54.6171 99.5195C51.5558 102.225 47.8141 104.121 43.8421 104.982L43.1029 105.142L43.0559 105.897L42.685 111.848C42.685 111.848 42.6849 111.848 42.6849 111.848C42.6532 112.357 42.2305 112.748 41.7302 112.748C41.7102 112.748 41.6896 112.748 41.6678 112.746L32.1182 112.151L32.1177 112.15C31.8646 112.135 31.6281 112.019 31.4594 111.828C31.2912 111.637 31.2055 111.388 31.2212 111.133C31.2212 111.133 31.2212 111.133 31.2212 111.133L31.5921 105.181L31.6391 104.427L30.9257 104.176C27.0918 102.828 23.6143 100.48 20.9127 97.4152L20.4048 96.839L19.7171 97.1811L14.2826 99.8845C14.0553 99.9975 13.7921 100.016 13.5507 99.9348C13.3097 99.8535 13.1108 99.6799 12.998 99.4525L12.9979 99.4522L8.73928 90.8771L8.73926 90.8771C8.50347 90.4024 8.69739 89.8258 9.17136 89.5901L9.17141 89.5901L14.7757 86.8023L15.4428 86.4705L15.3157 85.7364C14.9986 83.9053 14.8975 82.0376 15.014 80.1657C15.1453 78.0562 15.5488 75.9946 16.2156 74.0158L16.4607 73.2882L15.8212 72.8635L10.4371 69.2872C9.99594 68.9941 9.87539 68.3981 10.1684 67.9565L10.1684 67.9564L15.4596 59.9778L15.4601 59.977C15.6001 59.7655 15.819 59.6182 16.0678 59.568L16.0693 59.5677C16.3167 59.5173 16.5754 59.5675 16.7875 59.7084L16.7876 59.7085L22.3406 63.3959L22.9629 63.8091L23.5357 63.3297C26.5124 60.8378 30.0081 59.1292 33.7835 58.319L34.5245 58.16L34.5717 57.4035L34.9927 50.6541C35.0258 50.1241 35.4807 49.7229 36.009 49.7558L45.5587 50.3518C45.5588 50.3518 45.5588 50.3518 45.5588 50.3518C46.0865 50.3848 46.4889 50.8401 46.4558 51.3696L46.0348 58.119L45.9877 58.8755L46.7033 59.1253C50.3487 60.3982 53.6055 62.5283 56.2495 65.3714ZM60.7009 83.0165L60.7009 83.0163L55.5985 96.9748L60.3175 100.109L61.1511 100.663L61.7042 99.8287L64.8295 95.1157L65.3817 94.2829L64.5494 93.73L59.7113 90.5166C59.7113 90.5166 59.7113 90.5165 59.7113 90.5165C59.3394 90.2694 59.1867 89.7979 59.344 89.3788C60.1081 87.3433 60.5645 85.2023 60.7009 83.0165Z" fill="white" stroke="black" stroke-width="2"/>
<path d="M38.84 66.611H38.9794C47.201 66.6865 53.8688 73.4045 53.8688 81.6502C53.8688 85.2383 52.5856 88.7129 50.2556 91.4334C49.9107 91.8354 49.3066 91.8817 48.905 91.5376C48.5027 91.1923 48.456 90.5861 48.8008 90.1836L48.0509 89.5414L48.8008 90.1836C50.8334 87.8102 51.9522 84.7794 51.9522 81.6502C51.9522 74.4154 46.0722 68.5296 38.84 68.5296C31.6079 68.5296 25.7271 74.4147 25.7271 81.6502C25.7271 88.8858 31.6078 94.7715 38.84 94.7715C39.3688 94.7715 39.7986 95.2008 39.7986 95.7315C39.7986 96.2619 39.3684 96.6914 38.84 96.6914C30.5542 96.6914 23.8105 89.9435 23.8105 81.6509C23.8105 73.3584 30.5542 66.611 38.84 66.611Z" fill="white" stroke="black" stroke-width="2"/>
<path d="M98.2886 55.1022L98.2888 55.1019L102.021 48.6331L102.021 48.633C102.232 48.2677 102.107 47.8004 101.742 47.589L97.6651 45.2337L97.0263 44.8647L97.1905 44.1454C97.501 42.7847 97.6583 41.3894 97.6583 39.9811C97.6583 38.389 97.4584 36.8189 97.0644 35.2964L96.874 34.5604L97.5323 34.18L101.742 31.7474L101.742 31.7472C102.107 31.5369 102.233 31.0698 102.021 30.7037L102.021 30.7036L98.2888 24.2348L98.2886 24.2345C98.1879 24.0597 98.0217 23.9318 97.8257 23.879C97.6294 23.8267 97.4222 23.8544 97.2481 23.9551L97.2474 23.9556L92.8964 26.4691L92.2555 26.8393L91.7142 26.3346C89.5815 24.3461 87.042 22.9021 84.2564 22.0925L83.5355 21.883V21.1323V16.0346C83.5355 15.612 83.1932 15.2705 82.7726 15.2705H75.3085C74.8879 15.2705 74.5456 15.612 74.5456 16.0346V21.1323V21.883L73.8247 22.0925C71.0391 22.9021 68.4996 24.3461 66.3669 26.3346L65.8256 26.8393L65.1847 26.4691L60.8337 23.9556L60.8335 23.9554C60.4692 23.7449 60.0029 23.8697 59.7923 24.2348L59.7923 24.2348L56.0601 30.7032C56.0601 30.7032 56.0601 30.7033 56.0601 30.7033C56.06 30.7034 56.0599 30.7035 56.0599 30.7036C55.9585 30.8796 55.9312 31.0887 55.9833 31.2839L55.9834 31.2843C56.0355 31.4793 56.1633 31.646 56.3386 31.7472L56.3389 31.7474L60.5494 34.18L61.2079 34.5604L61.0172 35.2966C60.6227 36.8197 60.4228 38.3897 60.4228 39.9811C60.4228 41.3894 60.58 42.7847 60.8906 44.1454L61.0548 44.8647L60.4159 45.2337L56.3389 47.5893L56.3386 47.5895C55.9742 47.7998 55.8485 48.2669 56.0598 48.633L56.0599 48.6331L59.7919 55.1012C59.8939 55.2776 60.0605 55.4054 60.256 55.4579L60.2563 55.458C60.4502 55.5101 60.6583 55.4831 60.834 55.3816L64.7784 53.1027L65.437 52.7222L65.9796 53.2553C68.173 55.4106 70.8906 57.0081 73.8262 57.8683L74.545 58.079V58.828V63.3027C74.545 63.7248 74.8868 64.0662 75.3078 64.0662H82.772C83.1928 64.0662 83.5348 63.7244 83.5348 63.3027V58.828V58.079L84.2536 57.8683C87.1893 57.0081 89.9074 55.4106 92.1 53.2548L92.6426 52.7214L93.3014 53.1021L97.2458 55.381L98.2886 55.1022ZM98.2886 55.1022C98.1941 55.2662 98.0418 55.3888 97.8635 55.4466L97.8235 55.4573M98.2886 55.1022L97.8235 55.4573M97.8235 55.4573C97.6297 55.5095 97.4218 55.4824 97.2461 55.3812L97.8235 55.4573ZM82.615 56.7082C86.0402 55.9792 89.2104 54.166 91.598 51.5823H91.6066L91.9054 51.2411C92.1459 50.9665 92.5459 50.9009 92.86 51.0826L92.8604 51.0828L96.4837 53.1763L97.3501 53.6769L97.8502 52.8102L99.8197 49.3963L100.319 48.5306L99.4537 48.0307L95.7344 45.882C95.7343 45.882 95.7342 45.882 95.7342 45.8819C95.4262 45.7038 95.2818 45.3365 95.386 44.9967L95.3861 44.9961C95.8818 43.3749 96.1332 41.6876 96.1332 39.9811C96.1332 38.0928 95.8266 36.2352 95.2231 34.4617L95.2228 34.4608C95.1052 34.1163 95.2476 33.7362 95.5636 33.5536L99.4532 31.306L100.318 30.806L99.819 29.9404L97.8495 26.5265L97.3495 25.6598L96.4831 26.1604L92.4882 28.4684L92.488 28.4685C92.181 28.646 91.7914 28.5875 91.5498 28.3277L91.5495 28.3275C89.1426 25.7409 86.051 23.9849 82.615 23.2534L82.6145 23.2533C82.2635 23.1788 82.011 22.868 82.011 22.5066V17.798V16.798H81.011H77.072H76.072V17.798V22.5066C76.072 22.8674 75.8201 23.1784 75.468 23.2534C72.0318 23.9849 68.941 25.7417 66.5337 28.3273L66.5333 28.3277C66.2912 28.588 65.9022 28.6461 65.595 28.4685L65.5948 28.4684L61.5999 26.1604L60.7335 25.6598L60.2335 26.5265L58.264 29.9404L57.7646 30.806L58.6299 31.306L62.5201 33.5536L62.5203 33.5538C62.8348 33.7354 62.9783 34.1159 62.8606 34.4614C62.2563 36.2353 61.9505 38.093 61.9505 39.9811C61.9505 41.6879 62.2011 43.3754 62.6977 44.9966L62.6977 44.9967C62.8018 45.3365 62.6575 45.7038 62.3495 45.8819C62.3494 45.882 62.3493 45.882 62.3493 45.882L58.6299 48.0307L57.7646 48.5306L58.264 49.3963L60.2335 52.8102L60.7335 53.6769L61.6 53.1763L65.2232 51.0828L65.2236 51.0826C65.5382 50.9006 65.9379 50.9664 66.1779 51.2407L66.1779 51.2408C68.5973 54.0062 71.8938 55.9475 75.468 56.7082L75.4685 56.7083C75.8195 56.7828 76.072 57.0935 76.072 57.455V61.5387V62.5387H77.072H81.011H82.011V61.5387V57.455C82.011 57.0942 82.2629 56.7832 82.615 56.7082ZM82.615 56.7082L82.4068 55.7301M82.615 56.7082C82.615 56.7082 82.615 56.7082 82.615 56.7082L82.4068 55.7301M82.4068 55.7301C85.7682 55.0147 88.8743 53.1864 91.1525 50.5823L82.4068 55.7301Z" fill="white" stroke="black" stroke-width="2"/>
<path d="M85.5992 46.606L85.5995 46.6063C85.9184 46.8799 86.3993 46.8437 86.6742 46.5234C88.2316 44.7045 89.0899 42.3812 89.0899 39.9826C89.0899 34.4379 84.5808 29.9261 79.0417 29.9261H78.8793C73.4144 30.0129 68.9922 34.4902 68.9922 39.9813C68.9922 45.5266 73.5013 50.0379 79.0411 50.0379C79.4614 50.0379 79.8033 49.6966 79.8033 49.2744C79.8033 48.8518 79.4609 48.5103 79.0411 48.5103C74.3392 48.5103 70.5179 44.6846 70.5179 39.982C70.5179 35.2793 74.3399 31.4536 79.0411 31.4536C83.7422 31.4536 87.5642 35.2793 87.5642 39.982C87.5642 42.0161 86.8376 43.9853 85.516 45.5284L85.5992 46.606ZM85.5992 46.606C85.279 46.3315 85.2417 45.8489 85.5159 45.5285L85.5992 46.606Z" fill="white" stroke="black" stroke-width="2"/>
<path d="M13.1005 24.6057H12.1005V25.4661C11.4007 27.8073 9.22843 29.5165 6.66963 29.5165C3.54474 29.5165 1 26.971 1 23.8422C1 20.7135 3.54474 18.168 6.66963 18.168C9.27281 18.168 11.4765 19.9372 12.1361 22.3426L12.3378 23.0781H13.1005H23.1451C23.5657 23.0781 23.9079 23.4197 23.9079 23.8422V45.4878C23.9079 45.9094 23.5659 46.2512 23.1451 46.2512C22.724 46.2512 22.3822 45.9099 22.3822 45.4878V25.6057V24.6057H21.3822H13.1005ZM2.52509 23.8416C2.52509 26.1284 4.3827 27.9883 6.66963 27.9883C8.95617 27.9883 10.8135 26.1275 10.8135 23.8416C10.8135 21.5555 8.95668 19.6955 6.66963 19.6955C4.38297 19.6955 2.52509 21.5545 2.52509 23.8416Z" fill="white" stroke="black" stroke-width="2"/>
<path d="M36.5552 13.1096V12.3471L35.8199 12.1453C33.4178 11.486 31.6484 9.28115 31.6484 6.67425C31.6484 3.54557 34.1938 1 37.3181 1C40.4422 1 42.987 3.54544 42.987 6.67425C42.987 9.28051 41.2183 11.4855 38.8155 12.1453L38.0803 12.3472V13.1096V27.3026V28.3026H39.0803H46.8524C47.2735 28.3026 47.6153 28.6439 47.6153 29.066C47.6153 29.4886 47.273 29.8301 46.8524 29.8301H37.3181C36.8975 29.8301 36.5552 29.4886 36.5552 29.066V13.1096ZM41.4613 6.6736C41.4613 4.38743 39.6037 2.52753 37.3174 2.52753C35.0306 2.52753 33.1729 4.38729 33.1729 6.6736C33.1729 8.96005 35.0314 10.8197 37.3174 10.8197C39.6037 10.8197 41.4613 8.95978 41.4613 6.6736Z" fill="white" stroke="black" stroke-width="2"/>
<path d="M107.661 87.4844H106.899H98.6169H97.6169V86.4844V63.9109C97.6169 63.4888 97.2751 63.1475 96.854 63.1475C96.4334 63.1475 96.0918 63.4883 96.0918 63.9109V88.2485C96.0918 88.6711 96.4334 89.0119 96.854 89.0119H106.898H107.661L107.862 89.7475C108.522 92.1529 110.726 93.9221 113.329 93.9221C116.454 93.9221 118.999 91.3765 118.999 88.2485C118.999 85.1205 116.455 82.5746 113.33 82.5743L107.661 87.4844ZM107.661 87.4844L107.863 86.7489M107.661 87.4844L107.863 86.7489M107.863 86.7489C108.523 84.3442 110.726 82.5745 113.329 82.5743L107.863 86.7489ZM109.186 88.2479C109.186 90.5348 111.044 92.3946 113.33 92.3946C115.617 92.3946 117.475 90.5347 117.475 88.2479C117.475 85.961 115.617 84.1011 113.33 84.1011C111.043 84.1011 109.186 85.961 109.186 88.2479Z" fill="white" stroke="black" stroke-width="2"/>
<path d="M83.7384 104.597L85.4457 106.305V105.373C87.1789 106.346 88.3519 108.202 88.3519 110.324C88.3519 113.453 85.8071 115.999 82.6829 115.999C79.5587 115.999 77.0139 113.453 77.0139 110.324C77.0139 107.718 78.7832 105.513 81.1855 104.853L81.9207 104.652V103.889V102.778L83.7378 104.596L83.7384 104.597ZM83.4457 83.0232V102.578L81.9207 102.159V84.7867V83.7867H80.9207H76.2193C75.7993 83.7867 75.457 83.4451 75.457 83.0232C75.457 82.601 75.7989 82.2598 76.2193 82.2598H82.6835C83.1041 82.2598 83.4457 82.6006 83.4457 83.0232ZM78.539 110.325C78.539 112.612 80.3957 114.472 82.6829 114.472C84.9694 114.472 86.8268 112.611 86.8268 110.325C86.8268 108.039 84.9699 106.179 82.6829 106.179C80.396 106.179 78.539 108.038 78.539 110.325Z" fill="white" stroke="black" stroke-width="2"/>
</g>
<defs>
<clipPath id="clip0_1463_603">
<rect width="120" height="117" fill="white"/>
</clipPath>
</defs>
</svg>
