<svg width="1440" height="884" viewBox="0 0 1440 884" fill="none" xmlns="http://www.w3.org/2000/svg">
<rect width="1445" height="439.5" transform="matrix(-1 1.01041e-07 7.56397e-08 1 1446 444.5)" fill="url(#paint0_linear_1253_662)" fill-opacity="0.25"/>
<rect x="1448" y="444.5" width="1445" height="439.5" transform="rotate(-180 1448 444.5)" fill="url(#paint1_linear_1253_662)" fill-opacity="0.25"/>
<g clip-path="url(#clip0_1253_662)">
<path d="M717.879 354.91C724.729 350.84 728.729 348.46 734.719 346.49C739.069 345.06 739.399 345.51 749.259 343.05C757.539 340.98 758.469 340.37 761.889 339.61C771.259 337.51 778.769 338.82 789.829 340.76C804.559 343.34 811.729 347.29 813.399 348.25C815.329 349.36 819.509 351.89 822.949 356.35C826.149 360.5 825.749 361.83 829.329 367.83C832.789 373.63 837.439 377.49 838.519 378.24C843.539 381.75 847.169 381.63 848.429 385.1C848.789 386.11 849.219 388.13 849.349 390.25C849.349 390.25 849.459 392.01 849.279 393.89C848.119 406.13 840.169 415.26 840.169 415.26C837.139 418.67 833.109 421.15 830.229 424.5C827.459 427.53 825.729 431.29 823.629 434.78C817.799 444.42 805.909 449.1 794.889 447.05C788.519 445.72 783.709 445.4 780.089 451.7C775.379 459.97 768.459 467.08 759.899 471.35C758.259 472.15 753.389 474.46 752.999 472.1C753.449 469.23 756.019 466.88 758.039 463.52C759.189 461.7 760.339 459.6 760.999 457.69C763.619 450.31 757.099 451.08 751.969 451.63C740.589 452.76 728.919 450.59 718.939 445C714.469 442.59 710.599 439.14 706.039 436.92C695.559 431.84 693.879 432.67 689.979 429.81C677.309 420.53 676.509 392.65 686.899 382.46C688.499 380.89 690.179 379.93 693.979 376.15C699.709 370.44 700.409 368.13 704.509 364.09C707.629 361.02 711.049 358.98 717.899 354.91H717.879Z" fill="#CEE2EE"/>
<path opacity="0.34" d="M820.33 298.38C817.73 296.94 816.22 296.09 813.94 295.4C812.29 294.89 812.16 295.05 808.43 294.18C805.29 293.45 804.94 293.23 803.64 292.96C800.09 292.22 797.24 292.68 793.05 293.37C787.46 294.28 784.75 295.68 784.11 296.02C783.38 296.42 781.79 297.31 780.49 298.89C779.28 300.36 779.43 300.83 778.07 302.96C776.76 305.02 774.99 306.38 774.58 306.65C772.68 307.89 771.3 307.85 770.82 309.08C770.68 309.44 770.52 310.15 770.47 310.91C770.47 310.91 770.43 311.53 770.5 312.2C770.94 316.54 773.95 319.77 773.95 319.77C775.1 320.98 776.63 321.86 777.72 323.04C778.77 324.12 779.43 325.45 780.22 326.68C782.43 330.1 786.94 331.75 791.12 331.03C793.54 330.56 795.36 330.45 796.73 332.68C798.52 335.61 801.14 338.13 804.39 339.65C805.01 339.93 806.86 340.75 807.01 339.92C806.84 338.9 805.86 338.07 805.1 336.88C804.66 336.24 804.23 335.49 803.98 334.81C802.98 332.2 805.46 332.47 807.4 332.66C811.72 333.06 816.14 332.29 819.92 330.31C821.62 329.46 823.08 328.23 824.81 327.45C828.78 325.65 829.42 325.94 830.9 324.93C835.71 321.64 836.01 311.76 832.07 308.15C831.46 307.59 830.83 307.25 829.39 305.91C827.22 303.89 826.95 303.07 825.4 301.64C824.22 300.55 822.92 299.83 820.32 298.38H820.33Z" fill="#CEE2EE"/>
<path d="M821.71 342.1C825.97 332.35 837.39 329.7 847.14 330C863.44 329.96 879.76 329.86 896.06 330.03C904.99 329.94 915.14 332.09 919.82 340.49C924.43 348.44 923.14 358.46 923.29 367.54C922.96 377.61 924.18 387.95 922.48 397.9C919.66 412.03 907 416.04 894.09 415.8C889.2 415.87 884.27 415.87 879.85 417.41C873.93 419.35 869.29 423.75 864.59 427.66C860.69 430.48 852.25 440.31 849.49 432.27C848.56 429.71 848.54 425.48 847.5 422.54C845.97 416.93 840.12 415.42 834.97 414.12C831.62 413.18 828.45 411.64 825.91 409.27C816.45 400.07 819.68 384.88 819.06 372.81C819.53 362.72 817.72 351.76 821.63 342.26L821.71 342.09V342.1Z" fill="#93A2AE"/>
<path opacity="0.34" d="M713.14 451.62C711.51 448.01 707.15 447.03 703.41 447.14C697.18 447.12 690.94 447.09 684.7 447.15C681.29 447.12 677.4 447.91 675.62 451.03C673.86 453.98 674.35 457.69 674.29 461.05C674.42 464.78 673.95 468.61 674.6 472.3C675.68 477.53 680.52 479.02 685.46 478.93C687.33 478.96 689.21 478.96 690.9 479.53C693.16 480.25 694.94 481.88 696.74 483.33C698.23 484.37 701.46 488.02 702.52 485.04C702.87 484.09 702.88 482.53 703.28 481.44C703.86 479.36 706.1 478.8 708.07 478.32C709.35 477.97 710.56 477.4 711.53 476.52C715.15 473.11 713.91 467.48 714.15 463.01C713.97 459.27 714.66 455.21 713.17 451.69L713.14 451.63V451.62Z" fill="#93A2AE"/>
<path d="M807.339 480.31C815.029 480.22 818.519 489.28 814.949 495.37C811.659 501.69 801.869 501.16 798.799 494.91C795.239 488.53 799.749 480.06 807.139 480.3H807.339V480.31Z" fill="#ACD0E4"/>
<path d="M848.27 493.26C843.47 505.81 827.14 499.72 829.95 487.17C834.15 474.64 851.83 480.16 848.33 493.07L848.27 493.26Z" fill="#ADD0E5"/>
<path d="M733.63 489.63C733.81 480.63 744.9 476.56 750.4 483.86C754.08 488.85 752.46 496.94 746.67 499.42C740.35 502.41 733.14 496.51 733.62 489.83V489.63H733.63Z" fill="#ADD0E4"/>
<path d="M784.33 490.32C784.31 496.69 777.62 502.55 771.45 499.53C765.84 497.1 763.93 489.03 767.29 484.22C772.59 476.49 784.77 480.78 784.34 490.12V490.32H784.33Z" fill="#ACD0E4"/>
<path opacity="0.67" d="M768.9 357.05C743.7 422.97 657.92 390.95 672.7 325.06C694.76 259.24 787.62 288.26 769.22 356.04L768.9 357.05Z" fill="#ADD0E5"/>
</g>
<g clip-path="url(#clip1_1253_662)">
<path d="M1197.46 117.85C1209.51 110.681 1216.55 106.489 1227.08 103.02C1234.74 100.501 1235.32 101.293 1252.66 96.9606C1267.23 93.3147 1268.86 92.2403 1274.88 90.9016C1291.36 87.2029 1304.57 89.5102 1324.03 92.9272C1349.94 97.4714 1362.55 104.429 1365.49 106.12C1368.88 108.075 1376.23 112.531 1382.29 120.386C1387.91 127.696 1387.21 130.038 1393.51 140.606C1399.59 150.822 1407.77 157.621 1409.67 158.942C1418.5 165.124 1424.89 164.913 1427.11 171.024C1427.74 172.803 1428.5 176.361 1428.72 180.095C1428.72 180.095 1428.92 183.195 1428.6 186.506C1426.56 208.065 1412.58 224.146 1412.58 224.146C1407.25 230.152 1400.16 234.52 1395.09 240.421C1390.22 245.757 1387.18 252.38 1383.48 258.527C1373.23 275.506 1352.31 283.749 1332.93 280.139C1321.72 277.796 1313.26 277.232 1306.89 288.329C1298.61 302.895 1286.44 315.418 1271.38 322.939C1268.49 324.348 1259.93 328.416 1259.24 324.26C1260.03 319.205 1264.55 315.066 1268.11 309.148C1270.13 305.942 1272.15 302.243 1273.31 298.879C1277.92 285.88 1266.45 287.237 1257.43 288.205C1237.41 290.196 1216.88 286.374 1199.33 276.528C1191.46 272.283 1184.66 266.206 1176.64 262.296C1158.2 253.349 1155.25 254.811 1148.39 249.773C1126.1 233.428 1124.69 184.322 1142.97 166.374C1145.78 163.609 1148.74 161.918 1155.42 155.261C1165.5 145.203 1166.73 141.135 1173.94 134.019C1179.43 128.612 1185.45 125.019 1197.5 117.85H1197.46Z" fill="#CEE2EE"/>
<path opacity="0.34" d="M1377.68 18.2823C1373.1 15.746 1370.45 14.2489 1366.44 13.0336C1363.53 12.1353 1363.31 12.4171 1356.74 10.8847C1351.22 9.59897 1350.61 9.21147 1348.32 8.73592C1342.07 7.43253 1337.06 8.24274 1329.69 9.45806C1319.86 11.0609 1315.09 13.5267 1313.96 14.1256C1312.68 14.8301 1309.88 16.3977 1307.6 19.1806C1305.47 21.7697 1305.73 22.5976 1303.34 26.3492C1301.04 29.9775 1297.92 32.3729 1297.2 32.8485C1293.86 35.0325 1291.43 34.9621 1290.59 37.1285C1290.34 37.7626 1290.06 39.0131 1289.97 40.3517C1289.97 40.3517 1289.9 41.4437 1290.02 42.6238C1290.8 50.268 1296.09 55.9571 1296.09 55.9571C1298.12 58.0883 1300.81 59.6382 1302.72 61.7166C1304.57 63.6188 1305.73 65.9614 1307.12 68.1278C1311.01 74.1516 1318.94 77.0578 1326.3 75.7896C1330.55 74.9618 1333.75 74.768 1336.16 78.6958C1339.31 83.8565 1343.92 88.295 1349.64 90.9722C1350.73 91.4654 1353.98 92.9097 1354.25 91.4478C1353.95 89.6512 1352.22 88.1893 1350.89 86.0934C1350.11 84.9661 1349.36 83.6451 1348.92 82.4474C1347.16 77.8504 1351.52 78.3259 1354.93 78.6606C1362.53 79.3651 1370.31 78.0089 1376.96 74.5214C1379.95 73.0243 1382.51 70.8579 1385.56 69.4841C1392.54 66.3137 1393.67 66.8245 1396.27 65.0455C1404.73 59.2508 1405.26 41.8488 1398.33 35.4905C1397.26 34.5041 1396.15 33.9053 1393.61 31.5451C1389.8 27.9872 1389.32 26.5429 1386.6 24.0242C1384.52 22.1044 1382.23 20.8362 1377.66 18.2823H1377.68Z" fill="#CEE2EE"/>
<path d="M1380.11 95.2873C1387.6 78.1143 1407.69 73.4468 1424.84 73.9752C1453.51 73.9048 1482.22 73.7286 1510.89 74.0281C1526.6 73.8695 1544.45 77.6564 1552.68 92.4515C1560.79 106.454 1558.52 124.103 1558.79 140.095C1558.21 157.832 1560.35 176.044 1557.36 193.569C1552.4 218.457 1530.13 225.52 1507.42 225.097C1498.82 225.22 1490.15 225.22 1482.38 227.933C1471.96 231.35 1463.8 239.1 1455.53 245.986C1448.67 250.953 1433.83 268.267 1428.97 254.106C1427.34 249.597 1427.3 242.147 1425.47 236.968C1422.78 227.087 1412.49 224.428 1403.43 222.138C1397.54 220.482 1391.96 217.77 1387.49 213.596C1370.85 197.391 1376.53 170.637 1375.44 149.378C1376.27 131.606 1373.09 112.302 1379.96 95.5691L1380.11 95.2697V95.2873Z" fill="#93A2AE"/>
<path opacity="0.34" d="M1189.13 288.188C1186.26 281.829 1178.59 280.103 1172.01 280.297C1161.05 280.262 1150.07 280.209 1139.1 280.314C1133.1 280.262 1126.26 281.653 1123.13 287.148C1120.03 292.344 1120.89 298.879 1120.79 304.797C1121.02 311.367 1120.19 318.112 1121.33 324.612C1123.23 333.823 1131.75 336.448 1140.43 336.289C1143.72 336.342 1147.03 336.342 1150 337.346C1153.98 338.614 1157.11 341.485 1160.28 344.039C1162.9 345.871 1168.58 352.3 1170.44 347.051C1171.06 345.378 1171.08 342.63 1171.78 340.71C1172.8 337.047 1176.74 336.06 1180.21 335.215C1182.46 334.598 1184.59 333.595 1186.29 332.045C1192.66 326.038 1190.48 316.122 1190.9 308.249C1190.59 301.662 1191.8 294.511 1189.18 288.311L1189.13 288.205V288.188Z" fill="#93A2AE"/>
<path d="M1354.83 338.72C1368.35 338.561 1374.49 354.519 1368.21 365.245C1362.43 376.377 1345.21 375.443 1339.81 364.435C1333.54 353.198 1341.48 338.279 1354.48 338.702H1354.83V338.72Z" fill="#ACD0E4"/>
<path d="M1426.82 361.529C1418.38 383.634 1389.66 372.907 1394.6 350.803C1401.99 328.733 1433.09 338.456 1426.93 361.195L1426.82 361.529Z" fill="#ADD0E5"/>
<path d="M1225.17 355.136C1225.49 339.284 1244.99 332.116 1254.67 344.973C1261.14 353.762 1258.29 368.012 1248.11 372.38C1236.99 377.646 1224.31 367.254 1225.15 355.489V355.136H1225.17Z" fill="#ADD0E4"/>
<path d="M1314.35 356.351C1314.32 367.571 1302.55 377.892 1291.7 372.573C1281.83 368.293 1278.47 354.079 1284.38 345.607C1293.7 331.992 1315.13 339.548 1314.37 355.999V356.351H1314.35Z" fill="#ACD0E4"/>
<path opacity="0.67" d="M1287.21 121.619C1242.88 237.726 1091.99 181.328 1117.99 65.2743C1156.79 -50.6562 1320.14 0.457496 1287.77 119.84L1287.21 121.619Z" fill="#ADD0E5"/>
</g>
<g clip-path="url(#clip2_1253_662)">
<path d="M189.308 432.001C176.933 424.641 169.706 420.337 158.885 416.774C151.026 414.188 150.43 415.002 132.617 410.553C117.658 406.81 115.978 405.706 109.8 404.332C92.8721 400.534 79.3047 402.903 59.3239 406.412C32.7129 411.077 19.7597 418.221 16.7427 419.957C13.256 421.964 5.70445 426.539 -0.510193 434.605C-6.29126 442.11 -5.56863 444.515 -12.0362 455.366C-18.287 465.854 -26.6876 472.835 -28.6387 474.191C-37.7078 480.539 -44.2657 480.322 -46.542 486.597C-47.1923 488.424 -47.9692 492.077 -48.204 495.91C-48.204 495.91 -48.4027 499.093 -48.0776 502.493C-45.9819 524.628 -31.6196 541.139 -31.6196 541.139C-26.1456 547.306 -18.8651 551.791 -13.6621 557.849C-8.6579 563.328 -5.5325 570.128 -1.73868 576.439C8.7937 593.873 30.274 602.336 50.1826 598.629C61.6905 596.224 70.3802 595.645 76.92 607.038C85.429 621.993 97.9306 634.851 113.395 642.573C116.358 644.02 125.156 648.198 125.86 643.93C125.047 638.739 120.404 634.49 116.755 628.413C114.678 625.122 112.6 621.324 111.408 617.87C106.674 604.524 118.453 605.917 127.721 606.911C148.28 608.955 169.363 605.031 187.393 594.921C195.468 590.563 202.46 584.324 210.698 580.309C229.631 571.123 232.666 572.624 239.711 567.452C262.601 550.669 264.046 500.251 245.276 481.823C242.385 478.984 239.35 477.248 232.485 470.412C222.133 460.086 220.869 455.908 213.462 448.602C207.825 443.05 201.647 439.361 189.271 432.001H189.308Z" fill="#CEE2EE"/>
<path opacity="0.34" d="M4.22345 329.771C8.92057 327.167 11.6485 325.63 15.7675 324.382C18.7484 323.46 18.9833 323.749 25.7218 322.176C31.3945 320.856 32.0268 320.458 34.3754 319.97C40.7887 318.631 45.9375 319.463 53.5071 320.711C63.6059 322.357 68.5017 324.888 69.6579 325.503C70.9768 326.227 73.8492 327.836 76.1978 330.693C78.3838 333.352 78.1128 334.202 80.5697 338.054C82.9363 341.779 86.134 344.239 86.8747 344.727C90.3072 346.969 92.8003 346.897 93.6675 349.121C93.9204 349.772 94.2094 351.056 94.2998 352.431C94.2998 352.431 94.372 353.552 94.2456 354.764C93.4507 362.612 88.0128 368.453 88.0128 368.453C85.9353 370.641 83.1712 372.233 81.202 374.367C79.3051 376.32 78.1128 378.725 76.6856 380.949C72.693 387.134 64.5453 390.118 56.9938 388.816C52.6218 387.966 49.3339 387.767 46.8588 391.8C43.6251 397.099 38.8918 401.656 33.0204 404.405C31.9003 404.911 28.5582 406.394 28.2872 404.893C28.5943 403.048 30.3647 401.547 31.7377 399.395C32.5326 398.238 33.3095 396.882 33.7611 395.652C35.5677 390.932 31.0874 391.42 27.5826 391.764C19.7782 392.487 11.793 391.095 4.96416 387.514C1.89297 385.977 -0.744644 383.753 -3.87004 382.342C-11.0422 379.087 -12.1984 379.611 -14.8721 377.785C-23.5618 371.835 -24.1038 353.968 -16.9859 347.439C-15.8838 346.427 -14.7457 345.812 -12.1442 343.389C-8.22391 339.736 -7.73612 338.253 -4.93592 335.667C-2.80415 333.695 -0.455612 332.393 4.24151 329.771H4.22345Z" fill="#CEE2EE"/>
<path d="M1.73121 408.835C-5.96485 391.203 -26.596 386.41 -44.2102 386.953C-73.6576 386.881 -103.141 386.7 -132.588 387.007C-148.721 386.844 -167.058 390.733 -175.513 405.923C-183.841 420.3 -181.511 438.421 -181.782 454.841C-181.185 473.052 -183.389 491.751 -180.318 509.745C-175.224 535.298 -152.352 542.549 -129.029 542.115C-120.195 542.242 -111.289 542.242 -103.304 545.027C-92.6086 548.535 -84.2261 556.492 -75.7351 563.563C-68.6894 568.663 -53.4419 586.44 -48.4557 571.9C-46.7756 567.271 -46.7394 559.621 -44.8606 554.304C-42.0965 544.159 -31.528 541.428 -22.2241 539.077C-16.172 537.377 -10.4452 534.592 -5.85644 530.306C11.2338 513.669 5.39859 486.199 6.51867 464.371C5.66958 446.124 8.93948 426.304 1.87574 409.124L1.73121 408.817V408.835Z" fill="#93A2AE"/>
<path opacity="0.34" d="M197.871 606.894C200.816 600.365 208.693 598.593 215.449 598.792C226.704 598.756 237.978 598.702 249.251 598.81C255.411 598.756 262.439 600.185 265.654 605.827C268.834 611.162 267.949 617.871 268.057 623.947C267.822 630.693 268.671 637.619 267.497 644.292C265.546 653.75 256.802 656.445 247.878 656.282C244.499 656.336 241.103 656.336 238.05 657.367C233.967 658.669 230.751 661.617 227.499 664.239C224.808 666.12 218.972 672.72 217.057 667.331C216.425 665.613 216.407 662.792 215.684 660.821C214.636 657.059 210.59 656.047 207.031 655.179C204.718 654.546 202.532 653.515 200.78 651.924C194.24 645.757 196.48 635.575 196.047 627.492C196.372 620.728 195.125 613.386 197.817 607.02L197.871 606.912V606.894Z" fill="#93A2AE"/>
<path d="M27.6901 658.777C13.7975 658.614 7.49252 674.999 13.942 686.012C19.8857 697.441 37.5721 696.483 43.1184 685.18C49.5498 673.642 41.4021 658.325 28.0514 658.759H27.6901V658.777Z" fill="#ACD0E4"/>
<path d="M160.855 675.631C160.53 659.355 140.495 651.995 130.558 665.197C123.91 674.221 126.837 688.851 137.297 693.336C148.715 698.743 161.74 688.073 160.873 675.993V675.631H160.855Z" fill="#ADD0E4"/>
<path d="M69.2609 676.879C69.2971 688.398 81.3831 698.996 92.5298 693.534C102.665 689.14 106.115 674.546 100.045 665.847C90.4702 651.868 68.4661 659.626 69.2429 676.517V676.879H69.2609Z" fill="#ACD0E4"/>
<path opacity="0.67" d="M97.1361 435.871C142.662 555.082 297.631 497.177 270.93 378.02C231.076 258.989 63.3168 311.47 96.558 434.045L97.1361 435.871Z" fill="#ADD0E5"/>
</g>
<path d="M388.358 510.152C377.765 506.732 365.35 505.722 354.516 509.002C344.358 512.072 335.755 519.182 334.465 528.332C333.282 536.612 338.603 544.672 348.424 547.252C355.831 549.202 366.81 547.702 371.371 542.002C373.651 539.142 373.518 535.222 371.202 532.402C368.523 529.152 364.216 527.082 359.776 525.882C350.631 523.402 339.29 524.172 332.956 530.762C326.043 537.952 326.092 548.192 328.384 556.752C330.893 566.132 336.769 574.542 345.709 580.722C355.204 587.282 366.81 591.312 378.417 594.562C393.075 598.662 408.048 601.892 423.141 604.732C426.905 605.442 430.681 606.122 434.457 606.802C436.352 607.142 437.16 604.732 435.254 604.392C421.053 601.862 406.889 599.162 392.955 595.752C381.384 592.932 369.633 589.892 358.992 585.102C349.147 580.682 340.545 574.582 335.526 566.162C331.147 558.832 328.867 549.872 330.556 541.742C331.364 537.832 333.198 534.012 336.6 531.142C339.628 528.592 343.73 527.422 347.977 527.172C352.477 526.902 357.146 527.512 361.285 529.022C364.735 530.282 368.813 532.502 369.778 535.732C371.793 542.482 361.695 545.402 355.373 545.512C346.65 545.672 339.254 540.902 337.662 533.722C335.852 525.592 341.522 517.932 349.678 513.722C358.667 509.082 370.032 508.682 380.13 510.642C382.675 511.132 385.173 511.782 387.61 512.572C389.42 513.152 390.204 510.742 388.406 510.162L388.358 510.152Z" fill="#1D1D1B"/>
<path d="M437.305 591.592C438.825 594.682 440.418 597.752 442.119 600.772C443.639 603.462 445.413 606.032 447.162 608.622C448.115 610.022 450.721 608.762 449.768 607.362C448.055 604.832 446.33 602.332 444.846 599.702C443.205 596.812 441.673 593.872 440.225 590.922C439.923 590.302 439.223 589.852 438.367 590.052C437.655 590.222 437.004 590.962 437.317 591.592H437.305Z" fill="#1D1D1B"/>
<path d="M447.778 606.832C444.014 608.062 440.273 609.362 436.594 610.752C433.348 611.972 430.248 613.412 427.123 614.822C425.422 615.592 426.942 617.752 428.643 616.982C431.695 615.602 434.712 614.202 437.873 613.002C441.395 611.662 444.967 610.422 448.574 609.242C449.334 608.992 449.853 608.412 449.624 607.702C449.431 607.102 448.526 606.582 447.766 606.832H447.778Z" fill="#1D1D1B"/>
<path d="M1059.62 510.152C1070.21 506.732 1082.62 505.722 1093.46 509.002C1103.62 512.072 1112.22 519.182 1113.51 528.332C1114.69 536.612 1109.37 544.672 1099.55 547.252C1092.14 549.202 1081.16 547.702 1076.6 542.002C1074.32 539.142 1074.46 535.222 1076.77 532.402C1079.45 529.152 1083.76 527.082 1088.2 525.882C1097.34 523.402 1108.68 524.172 1115.02 530.762C1121.93 537.952 1121.88 548.192 1119.59 556.752C1117.08 566.132 1111.21 574.542 1102.27 580.722C1092.77 587.282 1081.16 591.312 1069.56 594.562C1054.9 598.662 1039.93 601.892 1024.83 604.732C1021.07 605.442 1017.29 606.122 1013.52 606.802C1011.62 607.142 1010.81 604.732 1012.72 604.392C1026.92 601.862 1041.09 599.162 1055.02 595.752C1066.59 592.932 1078.34 589.892 1088.98 585.102C1098.83 580.682 1107.43 574.582 1112.45 566.162C1116.83 558.832 1119.11 549.872 1117.42 541.742C1116.61 537.832 1114.78 534.012 1111.37 531.142C1108.35 528.592 1104.24 527.422 1100 527.172C1095.5 526.902 1090.83 527.512 1086.69 529.022C1083.24 530.282 1079.16 532.502 1078.2 535.732C1076.18 542.482 1086.28 545.402 1092.6 545.512C1101.32 545.672 1108.72 540.902 1110.31 533.722C1112.12 525.592 1106.45 517.932 1098.3 513.722C1089.31 509.082 1077.94 508.682 1067.84 510.642C1065.3 511.132 1062.8 511.782 1060.36 512.572C1058.55 513.152 1057.77 510.742 1059.57 510.162L1059.62 510.152Z" fill="#1D1D1B"/>
<path d="M1010.67 591.592C1009.15 594.682 1007.56 597.752 1005.86 600.772C1004.34 603.462 1002.56 606.032 1000.81 608.622C999.859 610.022 997.253 608.762 998.207 607.362C999.92 604.832 1001.65 602.332 1003.13 599.702C1004.77 596.812 1006.3 593.872 1007.75 590.922C1008.05 590.302 1008.75 589.852 1009.61 590.052C1010.32 590.222 1010.97 590.962 1010.66 591.592H1010.67Z" fill="#1D1D1B"/>
<path d="M1000.2 606.832C1003.96 608.062 1007.7 609.362 1011.38 610.752C1014.63 611.972 1017.73 613.412 1020.85 614.822C1022.55 615.592 1021.03 617.752 1019.33 616.982C1016.28 615.602 1013.26 614.202 1010.1 613.002C1006.58 611.662 1003.01 610.422 999.401 609.242C998.641 608.992 998.122 608.412 998.351 607.702C998.544 607.102 999.449 606.582 1000.21 606.832H1000.2Z" fill="#1D1D1B"/>
<defs>
<linearGradient id="paint0_linear_1253_662" x1="722.499" y1="439.5" x2="722.499" y2="0" gradientUnits="userSpaceOnUse">
<stop stop-color="white"/>
<stop offset="1" stop-color="#6688AE"/>
</linearGradient>
<linearGradient id="paint1_linear_1253_662" x1="2170.5" y1="884" x2="2170.5" y2="444.5" gradientUnits="userSpaceOnUse">
<stop stop-color="white"/>
<stop offset="1" stop-color="#6688AE"/>
</linearGradient>
<clipPath id="clip0_1253_662">
<rect width="252.41" height="212.34" fill="white" transform="translate(671 288)"/>
</clipPath>
<clipPath id="clip1_1253_662">
<rect width="444" height="374" fill="white" transform="translate(1115)"/>
</clipPath>
<clipPath id="clip2_1253_662">
<rect width="456" height="384" fill="white" transform="matrix(-1 0 0 1 274 311)"/>
</clipPath>
</defs>
</svg>
