<?xml version="1.0" encoding="UTF-8"?>
<svg id="Calque_2" data-name="Calque 2" xmlns="http://www.w3.org/2000/svg" viewBox="0 0 3278.76 1763.31">
  <defs>
    <style>
      .cls-1 {
        opacity: .48;
      }

      .cls-2 {
        fill: #009fbb;
        stroke-width: 0px;
      }
    </style>
  </defs>
  <g id="Calque_2-2" data-name="Calque 2">
    <g class="cls-1">
      <g>
        <g>
          <g>
            <rect class="cls-2" x="90.38" y="158.98" width="412.68" height="412.68" transform="translate(-171.41 316.82) rotate(-45)"/>
            <polygon class="cls-2" points="732.75 364.55 368.21 0 308.24 59.98 611.87 363.74 306.89 668.72 367.54 729.36 672.65 424.39 672.78 424.52 732.75 364.55"/>
          </g>
          <g>
            <rect class="cls-2" x="1544.81" y="158.99" width="412.68" height="412.68" transform="translate(254.57 1345.25) rotate(-45)"/>
            <polygon class="cls-2" points="2187.19 364.55 1822.64 0 1762.67 59.98 2066.3 363.75 1761.33 668.72 1821.97 729.36 2127.08 424.39 2127.21 424.53 2187.19 364.55"/>
          </g>
          <g>
            <rect class="cls-2" x="817.28" y="158.99" width="412.68" height="412.68" transform="translate(41.49 830.81) rotate(-45)"/>
            <polygon class="cls-2" points="1459.65 364.55 1095.11 0 1035.14 59.97 1338.77 363.74 1033.79 668.71 1094.44 729.36 1399.55 424.39 1399.68 424.53 1459.65 364.55"/>
          </g>
          <g>
            <rect class="cls-2" x="2272.48" y="158.98" width="412.68" height="412.68" transform="translate(467.71 1859.79) rotate(-45)"/>
            <polygon class="cls-2" points="2914.87 364.55 2550.32 0 2490.35 59.98 2793.98 363.74 2489.01 668.71 2549.65 729.36 2854.76 424.38 2854.89 424.52 2914.87 364.55"/>
          </g>
        </g>
        <g>
          <g>
            <rect class="cls-2" x="454.28" y="671.94" width="412.68" height="412.68" transform="translate(-427.55 724.37) rotate(-45)"/>
            <polygon class="cls-2" points="1096.65 877.51 732.11 512.97 672.14 572.94 975.77 876.7 670.79 1181.68 731.44 1242.32 1036.55 937.35 1036.68 937.48 1096.65 877.51"/>
          </g>
          <g>
            <rect class="cls-2" x="1908.7" y="671.95" width="412.68" height="412.68" transform="translate(-1.57 1752.81) rotate(-45)"/>
            <polygon class="cls-2" points="2551.09 877.51 2186.54 512.97 2126.57 572.94 2430.2 876.71 2125.23 1181.68 2185.87 1242.32 2490.98 937.35 2491.11 937.49 2551.09 877.51"/>
          </g>
          <g>
            <rect class="cls-2" x="1181.17" y="671.95" width="412.68" height="412.68" transform="translate(-214.65 1238.37) rotate(-45)"/>
            <polygon class="cls-2" points="1823.54 877.51 1459 512.97 1399.03 572.94 1702.66 876.71 1397.68 1181.68 1458.33 1242.32 1763.44 937.35 1763.57 937.49 1823.54 877.51"/>
          </g>
          <g>
            <rect class="cls-2" x="2636.38" y="671.94" width="412.68" height="412.68" transform="translate(211.57 2267.35) rotate(-45)"/>
            <polygon class="cls-2" points="3278.76 877.51 2914.21 512.96 2854.24 572.94 3157.87 876.7 2852.9 1181.67 2913.54 1242.32 3218.65 937.34 3218.78 937.48 3278.76 877.51"/>
          </g>
        </g>
        <g>
          <g>
            <rect class="cls-2" x="85.47" y="1192.93" width="412.68" height="412.68" transform="translate(-903.96 616.18) rotate(-45)"/>
            <polygon class="cls-2" points="727.84 1398.49 363.3 1033.95 303.33 1093.92 606.96 1397.68 301.98 1702.66 362.63 1763.3 667.74 1458.33 667.87 1458.46 727.84 1398.49"/>
          </g>
          <g>
            <rect class="cls-2" x="1539.89" y="1192.94" width="412.68" height="412.68" transform="translate(-477.98 1644.61) rotate(-45)"/>
            <polygon class="cls-2" points="2182.27 1398.49 1817.72 1033.95 1757.75 1093.92 2061.38 1397.69 1756.42 1702.66 1817.06 1763.3 2122.17 1458.33 2122.3 1458.47 2182.27 1398.49"/>
          </g>
          <g>
            <rect class="cls-2" x="812.36" y="1192.93" width="412.68" height="412.68" transform="translate(-691.06 1130.17) rotate(-45)"/>
            <polygon class="cls-2" points="1454.73 1398.49 1090.19 1033.95 1030.22 1093.92 1333.85 1397.69 1028.87 1702.66 1089.52 1763.3 1394.63 1458.33 1394.76 1458.47 1454.73 1398.49"/>
          </g>
          <g>
            <rect class="cls-2" x="2267.57" y="1192.93" width="412.68" height="412.68" transform="translate(-264.84 2159.15) rotate(-45)"/>
            <polygon class="cls-2" points="2909.95 1398.5 2545.4 1033.95 2485.43 1093.93 2789.06 1397.69 2484.09 1702.66 2544.73 1763.31 2849.84 1458.33 2849.97 1458.47 2909.95 1398.5"/>
          </g>
        </g>
      </g>
    </g>
  </g>
</svg>