<svg width="1440" height="1106" viewBox="0 0 1440 1106" fill="none" xmlns="http://www.w3.org/2000/svg">
<g filter="url(#filter0_d_1331_654)">
<rect width="1445" height="505" transform="matrix(-1 1.161e-07 6.5829e-08 1 1441.11 593)" fill="url(#paint0_linear_1331_654)" fill-opacity="0.25"/>
<rect x="1443.11" y="593" width="1445" height="505" transform="rotate(-180 1443.11 593)" fill="url(#paint1_linear_1331_654)" fill-opacity="0.25"/>
<g clip-path="url(#clip0_1331_654)">
<path d="M1286.01 288.071L1289.67 517.051L1066.35 352.855L1286.01 288.071Z" fill="#FF7627" fill-opacity="0.78"/>
</g>
<path d="M1535.88 523.411L1379.18 646.627L1194.09 576.694L1165.72 383.545L1322.42 260.328L1507.51 330.261L1535.88 523.411Z" stroke="#FE8F50" stroke-width="5" stroke-miterlimit="10"/>
<path d="M1594.08 620.451L1437.38 743.667L1252.29 673.734L1223.92 480.585L1380.63 357.368L1565.71 427.301L1594.08 620.451Z" fill="#FFB24C" fill-opacity="0.45"/>
<path d="M1473.54 586.174L1493.03 708.343L1351.11 603.999L1473.54 586.174Z" fill="#FF842C"/>
<g clip-path="url(#clip1_1331_654)">
<path d="M1300.14 620.932L1461.85 730.068L1243.52 807.631L1300.14 620.932Z" stroke="#FFE3BD" stroke-width="5.8" stroke-miterlimit="10"/>
</g>
<g clip-path="url(#clip2_1331_654)">
<path d="M144.899 456.824L146.339 685.828L365.947 516.695L144.899 456.824Z" fill="#FF7627" fill-opacity="0.78"/>
</g>
<path d="M-99.6683 697.675L59.7474 817.368L243.226 743.326L267.289 549.592L107.874 429.899L-75.6052 503.941L-99.6683 697.675Z" stroke="#FE8F50" stroke-width="5" stroke-miterlimit="10"/>
<path d="M-155.69 795.989L3.72587 915.681L187.205 841.64L211.268 647.906L51.8522 528.213L-131.627 602.254L-155.69 795.989Z" fill="#FFB24C" fill-opacity="0.51"/>
<path d="M-35.9393 759.033L-52.704 881.606L86.8546 774.124L-35.9393 759.033Z" fill="#FF842C"/>
<g clip-path="url(#clip3_1331_654)">
<path d="M138.192 789.917L-21.0447 902.631L198.959 975.308L138.192 789.917Z" stroke="#FFE3BD" stroke-width="5.8" stroke-miterlimit="10"/>
</g>
</g>
<defs>
<filter id="filter0_d_1331_654" x="-207.24" y="3.43848" width="1850.13" height="1102.56" filterUnits="userSpaceOnUse" color-interpolation-filters="sRGB">
<feFlood flood-opacity="0" result="BackgroundImageFix"/>
<feColorMatrix in="SourceAlpha" type="matrix" values="0 0 0 0 0 0 0 0 0 0 0 0 0 0 0 0 0 0 127 0" result="hardAlpha"/>
<feOffset dy="4"/>
<feGaussianBlur stdDeviation="2"/>
<feComposite in2="hardAlpha" operator="out"/>
<feColorMatrix type="matrix" values="0 0 0 0 0 0 0 0 0 0 0 0 0 0 0 0 0 0 0.25 0"/>
<feBlend mode="normal" in2="BackgroundImageFix" result="effect1_dropShadow_1331_654"/>
<feBlend mode="normal" in="SourceGraphic" in2="effect1_dropShadow_1331_654" result="shape"/>
</filter>
<linearGradient id="paint0_linear_1331_654" x1="722.499" y1="505" x2="722.499" y2="0" gradientUnits="userSpaceOnUse">
<stop stop-color="white"/>
<stop offset="1" stop-color="#FF8700"/>
</linearGradient>
<linearGradient id="paint1_linear_1331_654" x1="2165.61" y1="1098" x2="2165.61" y2="593" gradientUnits="userSpaceOnUse">
<stop stop-color="white"/>
<stop offset="1" stop-color="#FF8700"/>
</linearGradient>
<clipPath id="clip0_1331_654">
<rect width="517.441" height="522.401" fill="white" transform="translate(978.691 173.215) rotate(-19.154)"/>
</clipPath>
<clipPath id="clip1_1331_654">
<rect width="241.49" height="163.614" fill="white" transform="matrix(-0.942303 0.33476 0.33476 0.942303 1412.67 577)"/>
</clipPath>
<clipPath id="clip2_1331_654">
<rect width="517.441" height="522.401" fill="white" transform="matrix(-0.95172 -0.306969 -0.306969 0.95172 449.58 335.146)"/>
</clipPath>
<clipPath id="clip3_1331_654">
<rect width="241.49" height="163.614" fill="white" transform="translate(24.7129 748.505) rotate(18.2806)"/>
</clipPath>
</defs>
</svg>
