<svg width="159" height="133" viewBox="0 0 159 133" fill="none" xmlns="http://www.w3.org/2000/svg">
<path d="M56.4691 122.311C51.5833 120.275 22.9196 117.014 13.5721 116.097C11.6051 116.062 6.58264 116.363 2.22884 117.854C-3.21342 119.717 8.64184 124.095 12.6412 126.606C16.6406 129.116 32.871 129.381 44.9689 131.02C57.0669 132.659 63.0081 130.067 61.5484 127.345C59.9591 124.381 62.5762 124.857 56.4691 122.311Z" fill="#E5803C"/>
<path d="M149.545 78.169C144.254 78.3109 116.767 87.0694 107.864 90.0598C106.054 90.8326 101.595 93.1636 98.2332 96.3057C94.0304 100.233 106.639 99.3752 111.316 100.028C115.992 100.681 130.909 94.2793 142.618 90.8224C154.327 87.3654 158.686 82.568 156.24 80.6822C153.577 78.6289 156.159 77.9916 149.545 78.169Z" fill="#E5803C"/>
<path d="M119.123 65.1929V83.8345L100.299 65.1929H65.8715C61.1341 65.1929 57.291 61.3548 57.291 56.6224V10.5707C57.291 5.40731 61.828 1.41643 66.9563 2.0703L127.371 9.77147C131.655 10.3176 134.864 13.9578 134.864 18.2718V56.6224C134.864 61.3548 131.023 65.1929 126.283 65.1929H124.865" stroke="#1A1A1A" stroke-width="3" stroke-linecap="round" stroke-linejoin="round"/>
<path d="M97.9602 36.1221C97.9602 36.7259 97.4692 37.2169 96.8629 37.2169C96.2567 37.2169 95.7656 36.7259 95.7656 36.1221C95.7656 35.5184 96.2567 35.0273 96.8629 35.0273C97.4692 35.0273 97.9602 35.5184 97.9602 36.1221Z" stroke="#1A1A1A" stroke-width="3" stroke-linecap="round" stroke-linejoin="round"/>
<path d="M51.3728 47.9717L28.5899 50.9605C24.8872 51.4314 22.1113 54.5806 22.1113 58.3109V91.473C22.1113 95.5666 25.4333 98.8836 29.5294 98.8836H30.2033" stroke="#1A1A1A" stroke-width="3" stroke-linecap="round" stroke-linejoin="round"/>
<path d="M35.7227 98.8813V115L51.9993 98.8813H81.7669C85.863 98.8813 89.1849 95.5643 89.1849 91.4708V70.9902" stroke="#1A1A1A" stroke-width="3" stroke-linecap="round" stroke-linejoin="round"/>
<path d="M112.833 36.1221C112.833 36.7259 112.342 37.2169 111.736 37.2169C111.13 37.2169 110.639 36.7259 110.639 36.1221C110.639 35.5184 111.13 35.0273 111.736 35.0273C112.342 35.0273 112.833 35.5184 112.833 36.1221Z" stroke="#1A1A1A" stroke-width="3" stroke-linecap="round" stroke-linejoin="round"/>
<path d="M83.0911 36.1221C83.0911 36.7259 82.6001 37.2169 81.9938 37.2169C81.3875 37.2169 80.8965 36.7259 80.8965 36.1221C80.8965 35.5184 81.3875 35.0273 81.9938 35.0273C82.6001 35.0273 83.0911 35.5184 83.0911 36.1221Z" stroke="#1A1A1A" stroke-width="3" stroke-linecap="round" stroke-linejoin="round"/>
<path d="M58.388 74.3399C58.388 74.9437 57.8969 75.4347 57.2907 75.4347C56.6844 75.4347 56.1934 74.9437 56.1934 74.3399C56.1934 73.7361 56.6844 73.2451 57.2907 73.2451C57.8969 73.2451 58.388 73.7361 58.388 74.3399Z" stroke="#1A1A1A" stroke-width="3" stroke-linecap="round" stroke-linejoin="round"/>
<path d="M73.2571 74.3399C73.2571 74.9437 72.7661 75.4347 72.1598 75.4347C71.5535 75.4347 71.0625 74.9437 71.0625 74.3399C71.0625 73.7361 71.5535 73.2451 72.1598 73.2451C72.7661 73.2451 73.2571 73.7361 73.2571 74.3399Z" stroke="#1A1A1A" stroke-width="3" stroke-linecap="round" stroke-linejoin="round"/>
<path d="M43.5169 74.3399C43.5169 74.9437 43.0258 75.4347 42.4196 75.4347C41.8133 75.4347 41.3223 74.9437 41.3223 74.3399C41.3223 73.7361 41.8133 73.2451 42.4196 73.2451C43.0258 73.2451 43.5169 73.7361 43.5169 74.3399Z" stroke="#1A1A1A" stroke-width="3" stroke-linecap="round" stroke-linejoin="round"/>
</svg>
