<svg width="116" height="116" viewBox="0 0 116 116" fill="none" xmlns="http://www.w3.org/2000/svg">
<path d="M74.2511 109.583C81.9175 106.633 86.4288 87.4418 87.2145 81.1514C86.6473 79.7936 83.3716 76.2414 74.8068 72.8955C64.1008 68.7131 48.1207 75.9932 37.9173 78.225C27.714 80.4568 32.5256 91.6668 29.3979 99.7098C26.2703 107.753 40.5605 112.44 52.6961 112.017C65.9089 111.557 64.668 113.271 74.2511 109.583Z" fill="#FF8700"/>
<path d="M42.4648 89.626V113.63" stroke="#1A1A1A" stroke-width="3" stroke-linecap="round" stroke-linejoin="round"/>
<path d="M73.2656 89.626V114" stroke="#1A1A1A" stroke-width="3" stroke-linecap="round" stroke-linejoin="round"/>
<path d="M82.7888 114V83.4686C82.7888 79.5379 80.055 76.1064 76.1392 75.1231L63.9152 72.0516C62.5545 71.7089 61.6035 70.5146 61.6035 69.1489V65.8539C63.3838 65.5286 65.0897 64.3691 66.5001 62.6955C68.2878 60.575 69.2016 57.8784 69.4524 55.147L69.9167 50.0941C70.1327 44.2117 65.2859 39.3301 59.2322 39.3301H56.5058C50.4522 39.3301 45.6053 44.2117 45.8213 50.0941L46.2856 55.147C46.5364 57.8784 47.4502 60.5725 49.238 62.6955C50.6483 64.3691 52.3542 65.5286 54.1345 65.8539V69.1489C54.1345 70.5171 53.1835 71.7114 51.8228 72.0516L39.5988 75.1231C35.6855 76.1064 32.9492 79.5404 32.9492 83.4686V113.816" stroke="#1A1A1A" stroke-width="3" stroke-linecap="round" stroke-linejoin="round"/>
<path d="M27.1657 93.9991C16.7741 85.2786 10.209 72.2228 10.209 57.5927C10.209 31.3296 31.4986 10.04 57.7617 10.04C84.0248 10.04 105.314 31.3296 105.314 57.5927C105.314 72.2178 98.712 85.301 88.3254 94.0214" stroke="#1A1A1A" stroke-width="3" stroke-linecap="round" stroke-linejoin="round"/>
<path d="M2.11133 56.3984H21.2283" stroke="#1A1A1A" stroke-width="3" stroke-linecap="round" stroke-linejoin="round"/>
<path d="M94.502 56.3984H113.619" stroke="#1A1A1A" stroke-width="3" stroke-linecap="round" stroke-linejoin="round"/>
<path d="M57.7617 21.1169V2" stroke="#1A1A1A" stroke-width="3" stroke-linecap="round" stroke-linejoin="round"/>
</svg>
