<svg width="134" height="141" viewBox="0 0 134 141" fill="none" xmlns="http://www.w3.org/2000/svg">
<path d="M18.6707 129.675C23.4509 135.151 36.8952 132.939 41.0321 131.636C41.6384 130.741 42.527 126.903 41.2316 118.718C39.6124 108.487 28.9594 97.4256 23.6292 89.6105C18.2991 81.7954 13.3442 89.2979 7.22841 89.193C1.11259 89.0881 3.81931 102.465 8.79968 112.455C14.2221 123.332 12.6955 122.83 18.6707 129.675Z" fill="#FF8700"/>
<path d="M20.2754 92.5936C20.2754 92.5936 38.5161 68.4057 64.4214 81.946L79.5776 80.7481C85.1707 80.6175 89.9806 84.6881 90.7723 90.229L54.3136 95.8467" stroke="#1A1A1A" stroke-width="3" stroke-linecap="round" stroke-linejoin="round"/>
<path d="M72.0482 93.116L86.1231 96.4116C89.2616 96.9169 94.1254 96.2158 97.0795 94.7709L114.293 86.3516C120.712 83.2121 128.464 85.5284 132.111 91.6712L92.0426 113.713C88.4756 115.675 84.4943 116.767 80.425 116.901L40.0957 116.271" stroke="#1A1A1A" stroke-width="3" stroke-linecap="round" stroke-linejoin="round"/>
<path d="M4.11133 98.8721L15.0279 89.7345C15.9559 88.9596 17.335 89.0817 18.1097 90.0071L42.1365 118.705C42.9112 119.631 42.7891 121.013 41.864 121.788L32.6273 129.521C31.6994 130.296 30.3203 130.174 29.5456 129.248L8.0614 103.635" stroke="#1A1A1A" stroke-width="3" stroke-linecap="round" stroke-linejoin="round"/>
<path d="M44.4434 65.2549C53.2778 65.2549 60.4395 58.0934 60.4395 49.2593C60.4395 40.4251 53.2778 33.2637 44.4434 33.2637C35.609 33.2637 28.4473 40.4251 28.4473 49.2593C28.4473 58.0934 35.609 65.2549 44.4434 65.2549Z" stroke="#1A1A1A" stroke-width="3" stroke-linecap="round" stroke-linejoin="round"/>
<path d="M105.871 12.2198C105.893 6.61836 101.368 2.06004 95.7655 2.03852C90.1628 2.017 85.6034 6.54043 85.5819 12.1419C85.5604 17.7433 90.0849 22.3016 95.6877 22.3231C101.29 22.3447 105.85 17.8212 105.871 12.2198Z" stroke="#1A1A1A" stroke-width="3" stroke-linecap="round" stroke-linejoin="round"/>
<path d="M102.352 80.5523C107.955 80.5523 112.497 76.0114 112.497 70.41C112.497 64.8085 107.955 60.2676 102.352 60.2676C96.749 60.2676 92.207 64.8085 92.207 70.41C92.207 76.0114 96.749 80.5523 102.352 80.5523Z" stroke="#1A1A1A" stroke-width="3" stroke-linecap="round" stroke-linejoin="round"/>
<path d="M87.0489 17.3984L61.2656 33.9816" stroke="#1A1A1A" stroke-width="3" stroke-linecap="round" stroke-linejoin="round"/>
<path d="M92.4513 68.2066L65.7656 57.752" stroke="#1A1A1A" stroke-width="3" stroke-linecap="round" stroke-linejoin="round"/>
</svg>
