<svg width="1440" height="909" viewBox="0 0 1440 909" fill="none" xmlns="http://www.w3.org/2000/svg">
<rect width="1454" height="380" transform="matrix(-1 8.80842e-08 8.67664e-08 1 1439 514)" fill="url(#paint0_linear_1406_658)" fill-opacity="0.3"/>
<path d="M-3 514L1441 514V134L-3 134L-3 514Z" fill="url(#paint1_linear_1406_658)" fill-opacity="0.3"/>
<g clip-path="url(#clip0_1406_658)">
<path d="M1108.64 176.66L1113.63 217.232L1150.65 233.812L1182.69 209.82L1177.69 169.248L1140.67 152.668L1108.64 176.66Z" fill="#00A3C3" fill-opacity="0.25"/>
</g>
<path d="M1179.45 414.046L1331.37 466.426L1453.81 364.219L1424.33 209.632L1272.41 157.252L1149.97 259.459L1179.45 414.046Z" stroke="#00A3C3" stroke-width="5" stroke-miterlimit="10"/>
<path d="M1160.79 503.334L1312.72 555.714L1435.16 453.507L1405.68 298.92L1253.76 246.54L1131.31 348.747L1160.79 503.334Z" fill="#00A3C3" fill-opacity="0.51"/>
<path d="M1282.06 596.619L1433.98 649L1556.43 546.793L1526.95 392.205L1375.03 339.825L1252.58 442.032L1282.06 596.619Z" stroke="#00A3C3" stroke-opacity="0.42" stroke-width="11" stroke-miterlimit="10"/>
<path d="M1205.65 594.659L1231.64 603.69L1252.58 586.068L1247.54 559.415L1221.55 550.384L1200.61 568.006L1205.65 594.659Z" fill="#00A3C3"/>
<g clip-path="url(#clip1_1406_658)">
<path d="M269.792 429.66L264.8 470.232L227.774 486.812L195.741 462.82L200.733 422.248L237.759 405.668L269.792 429.66Z" fill="#00A3C3" fill-opacity="0.25"/>
</g>
<path d="M198.98 667.046L47.0582 719.426L-75.3848 617.219L-45.9059 462.632L106.016 410.252L228.459 512.459L198.98 667.046Z" stroke="#00A3C3" stroke-width="5" stroke-miterlimit="10"/>
<path d="M217.634 756.334L65.7125 808.714L-56.7305 706.507L-27.2516 551.92L124.67 499.54L247.113 601.747L217.634 756.334Z" fill="#00A3C3" fill-opacity="0.51"/>
<path d="M96.3648 849.619L-55.557 902L-178 799.793L-148.521 645.205L3.40078 592.825L125.844 695.032L96.3648 849.619Z" stroke="#00A3C3" stroke-opacity="0.42" stroke-width="11" stroke-miterlimit="10"/>
<path d="M172.775 847.659L146.788 856.69L125.844 839.068L130.886 812.415L156.873 803.384L177.817 821.006L172.775 847.659Z" fill="#00A3C3"/>
<g clip-path="url(#clip2_1406_658)">
<path d="M344.859 526.15C336.079 522.73 325.789 521.72 316.809 525C308.389 528.07 301.259 535.18 300.189 544.33C299.209 552.61 303.619 560.67 311.759 563.25C317.899 565.2 326.999 563.7 330.779 558C332.669 555.14 332.559 551.22 330.639 548.4C328.419 545.15 324.849 543.08 321.169 541.88C313.589 539.4 304.189 540.17 298.939 546.76C293.209 553.95 293.249 564.19 295.149 572.75C297.229 582.13 302.099 590.54 309.509 596.72C317.379 603.28 326.999 607.31 336.619 610.56C348.769 614.66 361.179 617.89 373.689 620.73C376.809 621.44 379.939 622.12 383.069 622.8C384.639 623.14 385.309 620.73 383.729 620.39C371.959 617.86 360.219 615.16 348.669 611.75C339.079 608.93 329.339 605.89 320.519 601.1C312.359 596.68 305.229 590.58 301.069 582.16C297.439 574.83 295.549 565.87 296.949 557.74C297.619 553.83 299.139 550.01 301.959 547.14C304.469 544.59 307.869 543.42 311.389 543.17C315.119 542.9 318.989 543.51 322.419 545.02C325.279 546.28 328.659 548.5 329.459 551.73C331.129 558.48 322.759 561.4 317.519 561.51C310.289 561.67 304.159 556.9 302.839 549.72C301.339 541.59 306.039 533.93 312.799 529.72C320.249 525.08 329.669 524.68 338.039 526.64C340.149 527.13 342.219 527.78 344.239 528.57C345.739 529.15 346.389 526.74 344.899 526.16L344.859 526.15Z" fill="#1D1D1B"/>
<path d="M385.428 607.59C386.688 610.68 388.008 613.75 389.418 616.77C390.678 619.46 392.148 622.03 393.598 624.62C394.388 626.02 396.548 624.76 395.758 623.36C394.338 620.83 392.908 618.33 391.678 615.7C390.318 612.81 389.048 609.87 387.848 606.92C387.598 606.3 387.018 605.85 386.308 606.05C385.718 606.22 385.178 606.96 385.438 607.59H385.428Z" fill="#1D1D1B"/>
<path d="M394.11 622.83C390.99 624.06 387.89 625.36 384.84 626.75C382.15 627.97 379.58 629.41 376.99 630.82C375.58 631.59 376.84 633.75 378.25 632.98C380.78 631.6 383.28 630.2 385.9 629C388.82 627.66 391.78 626.42 394.77 625.24C395.4 624.99 395.83 624.41 395.64 623.7C395.48 623.1 394.73 622.58 394.1 622.83H394.11Z" fill="#1D1D1B"/>
</g>
<g clip-path="url(#clip3_1406_658)">
<path d="M1042.07 526.15C1050.85 522.73 1061.14 521.72 1070.12 525C1078.54 528.07 1085.67 535.18 1086.74 544.33C1087.72 552.61 1083.31 560.67 1075.17 563.25C1069.03 565.2 1059.93 563.7 1056.15 558C1054.26 555.14 1054.37 551.22 1056.29 548.4C1058.51 545.15 1062.08 543.08 1065.76 541.88C1073.34 539.4 1082.74 540.17 1087.99 546.76C1093.72 553.95 1093.68 564.19 1091.78 572.75C1089.7 582.13 1084.83 590.54 1077.42 596.72C1069.55 603.28 1059.93 607.31 1050.31 610.56C1038.16 614.66 1025.75 617.89 1013.24 620.73C1010.12 621.44 1006.99 622.12 1003.86 622.8C1002.29 623.14 1001.62 620.73 1003.2 620.39C1014.97 617.86 1026.71 615.16 1038.26 611.75C1047.85 608.93 1057.59 605.89 1066.41 601.1C1074.57 596.68 1081.7 590.58 1085.86 582.16C1089.49 574.83 1091.38 565.87 1089.98 557.74C1089.31 553.83 1087.79 550.01 1084.97 547.14C1082.46 544.59 1079.06 543.42 1075.54 543.17C1071.81 542.9 1067.94 543.51 1064.51 545.02C1061.65 546.28 1058.27 548.5 1057.47 551.73C1055.8 558.48 1064.17 561.4 1069.41 561.51C1076.64 561.67 1082.77 556.9 1084.09 549.72C1085.59 541.59 1080.89 533.93 1074.13 529.72C1066.68 525.08 1057.26 524.68 1048.89 526.64C1046.78 527.13 1044.71 527.78 1042.69 528.57C1041.19 529.15 1040.54 526.74 1042.03 526.16L1042.07 526.15Z" fill="#1D1D1B"/>
<path d="M1001.5 607.59C1000.24 610.68 998.922 613.75 997.512 616.77C996.252 619.46 994.782 622.03 993.332 624.62C992.542 626.02 990.382 624.76 991.172 623.36C992.592 620.83 994.022 618.33 995.252 615.7C996.612 612.81 997.882 609.87 999.082 606.92C999.332 606.3 999.912 605.85 1000.62 606.05C1001.21 606.22 1001.75 606.96 1001.49 607.59H1001.5Z" fill="#1D1D1B"/>
<path d="M992.82 622.83C995.94 624.06 999.04 625.36 1002.09 626.75C1004.78 627.97 1007.35 629.41 1009.94 630.82C1011.35 631.59 1010.09 633.75 1008.68 632.98C1006.15 631.6 1003.65 630.2 1001.03 629C998.11 627.66 995.15 626.42 992.16 625.24C991.53 624.99 991.1 624.41 991.29 623.7C991.45 623.1 992.2 622.58 992.83 622.83H992.82Z" fill="#1D1D1B"/>
</g>
<defs>
<linearGradient id="paint0_linear_1406_658" x1="727" y1="380" x2="727" y2="0" gradientUnits="userSpaceOnUse">
<stop stop-color="white"/>
<stop offset="0.9999" stop-color="#00A3C3"/>
</linearGradient>
<linearGradient id="paint1_linear_1406_658" x1="711" y1="134" x2="711" y2="514" gradientUnits="userSpaceOnUse">
<stop stop-color="white"/>
<stop offset="0.9999" stop-color="#00A3C3"/>
</linearGradient>
<clipPath id="clip0_1406_658">
<rect width="417.119" height="421.117" fill="white" transform="matrix(-1 0 0 1 1511.12 0)"/>
</clipPath>
<clipPath id="clip1_1406_658">
<rect width="417.119" height="421.117" fill="white" transform="translate(-132.691 253)"/>
</clipPath>
<clipPath id="clip2_1406_658">
<rect width="101.93" height="110.14" fill="white" transform="translate(294 523)"/>
</clipPath>
<clipPath id="clip3_1406_658">
<rect width="101.93" height="110.14" fill="white" transform="matrix(-1 0 0 1 1092.93 523)"/>
</clipPath>
</defs>
</svg>
