<svg width="1440" height="252" viewBox="0 0 1440 252" fill="none" xmlns="http://www.w3.org/2000/svg">
<path d="M155.493 126.377L24.0791 0.143409L2.15993 20.6305L111.614 125.817L0.150976 229.998L22.0128 250.998L133.525 146.818L133.573 146.864L155.493 126.377Z" fill="#009DBD" fill-opacity="0.1"/>
<path d="M220.426 126.377L89.0127 0.143409L67.0935 20.6305L176.548 125.817L65.0846 229.998L86.9464 250.998L198.458 146.818L198.507 146.864L220.426 126.377Z" fill="#009DBD" fill-opacity="0.1"/>
<path d="M283.588 126.377L152.175 0.143409L130.256 20.6305L239.71 125.817L128.247 229.998L150.109 250.998L261.621 146.818L261.669 146.864L283.588 126.377Z" fill="#009DBD" fill-opacity="0.1"/>
<path d="M764.493 126.377L633.079 0.143409L611.16 20.6305L720.614 125.817L609.151 229.998L631.013 250.998L742.525 146.818L742.573 146.864L764.493 126.377Z" fill="#009DBD" fill-opacity="0.1"/>
<path d="M829.426 126.377L698.013 0.143409L676.094 20.6305L785.548 125.817L674.085 229.998L695.946 250.998L807.458 146.818L807.507 146.864L829.426 126.377Z" fill="#009DBD" fill-opacity="0.1"/>
<path d="M892.588 126.377L761.175 0.143409L739.256 20.6305L848.71 125.817L737.247 229.998L759.109 250.998L870.621 146.818L870.669 146.864L892.588 126.377Z" fill="#009DBD" fill-opacity="0.1"/>
<path d="M1312.49 126.377L1181.08 0.143409L1159.16 20.6305L1268.61 125.817L1157.15 229.998L1179.01 250.998L1290.52 146.818L1290.57 146.864L1312.49 126.377Z" fill="#009DBD" fill-opacity="0.1"/>
<path d="M1377.43 126.377L1246.01 0.143409L1224.09 20.6305L1333.55 125.817L1222.08 229.998L1243.95 250.998L1355.46 146.818L1355.51 146.864L1377.43 126.377Z" fill="#009DBD" fill-opacity="0.1"/>
<path d="M1440.59 126.377L1309.17 0.143409L1287.26 20.6305L1396.71 125.817L1285.25 229.998L1307.11 250.998L1418.62 146.818L1418.67 146.864L1440.59 126.377Z" fill="#009DBD" fill-opacity="0.1"/>
</svg>
