<svg width="124" height="123" viewBox="0 0 124 123" fill="none" xmlns="http://www.w3.org/2000/svg">
<path d="M73.211 107.529C83.8395 111.028 107.419 93.8245 114.452 87.5754C115.23 85.5774 115.465 78.7721 110.183 67.5352C103.58 53.489 80.3032 47.4451 67.8392 40.9195C55.3753 34.3939 49.0822 51.0024 37.9577 57.1224C26.8331 63.2424 36.535 81.003 49.1443 91.2269C62.8728 102.358 59.9255 103.156 73.211 107.529Z" fill="#009DBD"/>
<path d="M39.4846 74.0768C39.0244 74.094 38.562 74.1026 38.0975 74.1026C18.1628 74.1026 2 57.9613 2 38.0524C2 18.1435 18.1628 2 38.0975 2C58.0322 2 74.1951 18.1413 74.1951 38.0502C74.1951 38.8287 74.1714 39.6007 74.1219 40.3684" stroke="#1A1A1A" stroke-width="3.5" stroke-linecap="round" stroke-linejoin="round"/>
<path d="M38.0969 74.1022C28.908 74.1022 21.4609 57.963 21.4609 38.0541C21.4609 18.1452 28.908 2.00391 38.0969 2.00391C47.2857 2.00391 54.7328 18.1431 54.7328 38.052" stroke="#1A1A1A" stroke-width="3.5" stroke-linecap="round" stroke-linejoin="round"/>
<path d="M2 38.0527H74.1951" stroke="#1A1A1A" stroke-width="3.5" stroke-linecap="round" stroke-linejoin="round"/>
<path d="M7.51758 18.8965H68.6808" stroke="#1A1A1A" stroke-width="3.5" stroke-linecap="round" stroke-linejoin="round"/>
<path d="M7.51953 57.209H38.3355" stroke="#1A1A1A" stroke-width="3.5" stroke-linecap="round" stroke-linejoin="round"/>
<path d="M62.5297 83.102C73.664 83.102 82.6902 74.0884 82.6902 62.9695C82.6902 51.8506 73.664 42.8369 62.5297 42.8369C51.3953 42.8369 42.3691 51.8506 42.3691 62.9695C42.3691 74.0884 51.3953 83.102 62.5297 83.102Z" stroke="#1A1A1A" stroke-width="3.5" stroke-linecap="round" stroke-linejoin="round"/>
<path d="M84.4291 75.6807C82.9259 78.7064 79.511 82.4632 75.7305 84.3663" stroke="#1A1A1A" stroke-width="3.5" stroke-linecap="round" stroke-linejoin="round"/>
<path d="M85.772 82.1689L97.8425 92.3643C99.4101 93.6889 99.3822 96.1856 97.7822 97.7834C96.1802 99.3812 93.6835 99.4091 92.3566 97.8436L82.1484 85.7903" stroke="#1A1A1A" stroke-width="3.5" stroke-linecap="round" stroke-linejoin="round"/>
</svg>
