<svg width="123" height="131" viewBox="0 0 123 131" fill="none" xmlns="http://www.w3.org/2000/svg">
<path d="M24.6948 86.812C9.47948 91.8354 4.20376 114.13 3.90613 121.278C5.36396 122.653 12.879 125.838 31.2766 127.584C54.2736 129.766 85.7505 118.042 106.358 113.233C126.965 108.424 114.663 97.1068 119.43 87.4802C124.196 77.8535 93.6887 75.933 68.7088 79.1801C41.5116 82.7154 43.7139 80.5327 24.6948 86.812Z" fill="#009DBD"/>
<path d="M62.9956 120H8.23242V111.178C8.23242 107.877 10.9087 105.203 14.2076 105.203H62.9642C66.2657 105.203 68.9394 107.879 68.9394 111.178V120" stroke="#1A1A1A" stroke-width="3.5" stroke-linecap="round" stroke-linejoin="round"/>
<path d="M14.2751 99.4818C15.1908 96.1776 16.4177 87.1101 11.7741 70.1158C5.71519 47.9469 9.29142 24.1376 30.618 16.9877V16.2291C30.618 8.37024 36.9883 2 44.8471 2V15.2794L60.5935 21.9191C60.5935 21.9191 64.7662 35.0102 79.9449 40.5119V51.3269C79.9449 51.3269 71.5969 63.8476 57.3678 51.3269C57.3678 51.3269 29.8593 61.5716 27.3923 35.9598" stroke="#1A1A1A" stroke-width="3.5" stroke-linecap="round" stroke-linejoin="round"/>
<path d="M62.9633 105.203C62.9633 105.203 72.7345 82.0584 50.5368 63.845C50.5368 63.845 38.037 54.5866 35.7871 51.1699" stroke="#1A1A1A" stroke-width="3.5" stroke-linecap="round" stroke-linejoin="round"/>
<path d="M53.2623 31.18C53.2623 31.9622 52.6292 32.5953 51.847 32.5953C51.0647 32.5953 50.4316 31.9622 50.4316 31.18C50.4316 30.3977 51.0647 29.7646 51.847 29.7646C52.6292 29.7646 53.2623 30.3977 53.2623 31.18Z" stroke="#1A1A1A" stroke-width="3.5" stroke-linecap="round" stroke-linejoin="round"/>
<path d="M3.38638 64.4284C-0.754937 44.8546 4.0064 21.8066 22.7666 13.4795" stroke="#1A1A1A" stroke-width="3.5" stroke-linecap="round" stroke-linejoin="round"/>
<path d="M74.6914 120H120.003" stroke="#1A1A1A" stroke-width="3.5" stroke-linecap="round" stroke-linejoin="round"/>
<path d="M71.0527 89.7132L120.003 60.8548L107.346 57.7861" stroke="#1A1A1A" stroke-width="3.5" stroke-linecap="round" stroke-linejoin="round"/>
<path d="M118.074 72.8756L120.002 60.8545" stroke="#1A1A1A" stroke-width="3.5" stroke-linecap="round" stroke-linejoin="round"/>
<path d="M82.1133 120V90.2656" stroke="#1A1A1A" stroke-width="3.5" stroke-linecap="round" stroke-linejoin="round"/>
<path d="M96.5039 81.582V120" stroke="#1A1A1A" stroke-width="3.5" stroke-linecap="round" stroke-linejoin="round"/>
<path d="M110.898 72.876V120" stroke="#1A1A1A" stroke-width="3.5" stroke-linecap="round" stroke-linejoin="round"/>
</svg>
