<svg width="147" height="144" viewBox="0 0 147 144" fill="none" xmlns="http://www.w3.org/2000/svg">
<path d="M28.9273 85.6694C10.7872 92.1559 4.70166 121.562 4.41693 131.005C6.17346 132.836 15.1895 137.12 37.2015 139.609C64.7165 142.721 102.231 127.542 126.819 121.393C151.408 115.244 136.589 100.167 142.191 87.4944C147.794 74.8215 111.303 71.9803 81.4709 76.0225C48.9914 80.4235 51.6025 77.5613 28.9273 85.6694Z" fill="#009DBD"/>
<path d="M110.55 58.6934H120.846C122.442 58.6934 123.735 59.9597 123.735 61.5214V72.2667C123.735 73.8284 122.442 75.0947 120.846 75.0947H114.963L130.003 104.678V118.05C130.003 120.231 128.196 122 125.964 122H14.0385C11.8091 122 10 120.231 10 118.05V104.678L25.0392 75.0947H19.1571C17.5609 75.0947 16.2679 73.8284 16.2679 72.2667V61.5214C16.2679 59.9597 17.5609 58.6934 19.1571 58.6934H29.3251" stroke="#1A1A1A" stroke-width="3.5" stroke-linecap="round" stroke-linejoin="round"/>
<path d="M122.527 104.678H10" stroke="#1A1A1A" stroke-width="3.5" stroke-linecap="round" stroke-linejoin="round"/>
<path d="M93.1852 95.7949H46.8145" stroke="#1A1A1A" stroke-width="3.5" stroke-linecap="round" stroke-linejoin="round"/>
<path d="M108.78 75.0947H31.2188" stroke="#1A1A1A" stroke-width="3.5" stroke-linecap="round" stroke-linejoin="round"/>
<path d="M107.285 64.8252H32.7168" stroke="#1A1A1A" stroke-width="3.5" stroke-linecap="round" stroke-linejoin="round"/>
<path d="M104.474 64.8253V2H35.5293V64.8253" stroke="#1A1A1A" stroke-width="3.5" stroke-linecap="round" stroke-linejoin="round"/>
<path d="M92.3015 21.458H47.6973" stroke="#1A1A1A" stroke-width="3.5" stroke-linecap="round" stroke-linejoin="round"/>
<path d="M92.3015 34.3398H47.6973" stroke="#1A1A1A" stroke-width="3.5" stroke-linecap="round" stroke-linejoin="round"/>
<path d="M79.1459 47.2217H47.6973" stroke="#1A1A1A" stroke-width="3.5" stroke-linecap="round" stroke-linejoin="round"/>
<path d="M29.5059 86.3057H41.5495" stroke="#1A1A1A" stroke-width="3.5" stroke-linecap="round" stroke-linejoin="round"/>
<path d="M52.0352 86.3057H64.0814" stroke="#1A1A1A" stroke-width="3.5" stroke-linecap="round" stroke-linejoin="round"/>
<path d="M74.5488 86.3057H86.5951" stroke="#1A1A1A" stroke-width="3.5" stroke-linecap="round" stroke-linejoin="round"/>
<path d="M97.0645 86.3057H109.111" stroke="#1A1A1A" stroke-width="3.5" stroke-linecap="round" stroke-linejoin="round"/>
</svg>
