<svg width="102" height="116" viewBox="0 0 102 116" fill="none" xmlns="http://www.w3.org/2000/svg">
<path d="M76.3577 105.311C71.472 103.275 42.8083 100.014 33.4608 99.0975C31.4938 99.0619 26.4713 99.3634 22.1175 100.854C16.6753 102.717 28.5305 107.095 32.5299 109.606C36.5293 112.116 52.7597 112.381 64.8576 114.02C76.9556 115.659 82.8968 113.067 81.4371 110.345C79.8477 107.381 82.4649 107.857 76.3577 105.311Z" fill="#009DBD"/>
<path d="M51 100C78.062 100 100 78.062 100 51C100 23.938 78.062 2 51 2C23.938 2 2 23.938 2 51C2 78.062 23.938 100 51 100Z" stroke="#1A1A1A" stroke-width="3.5" stroke-linecap="round" stroke-linejoin="round"/>
<path d="M51 85.9316C70.2922 85.9316 85.9316 70.2922 85.9316 51C85.9316 31.7078 70.2922 16.0684 51 16.0684C31.7078 16.0684 16.0684 31.7078 16.0684 51C16.0684 70.2922 31.7078 85.9316 51 85.9316Z" stroke="#1A1A1A" stroke-width="3.5" stroke-linecap="round" stroke-linejoin="round"/>
<path d="M51.0008 42.0479L56.3971 52.9819L68.4644 54.735L59.7337 63.2461L61.7935 75.2655L51.0008 69.5908L40.2081 75.2655L42.27 63.2461L33.5371 54.735L45.6044 52.9819L51.0008 42.0479Z" stroke="#1A1A1A" stroke-width="3.5" stroke-linecap="round" stroke-linejoin="round"/>
<path d="M51 28.9053V37.2467" stroke="#1A1A1A" stroke-width="3.5" stroke-linecap="round" stroke-linejoin="round"/>
<path d="M43.5404 37.2469L37.498 25.1514" stroke="#1A1A1A" stroke-width="3.5" stroke-linecap="round" stroke-linejoin="round"/>
<path d="M58.459 37.2469L64.5035 25.1514" stroke="#1A1A1A" stroke-width="3.5" stroke-linecap="round" stroke-linejoin="round"/>
<path d="M51 7.02441V11.1201" stroke="#1A1A1A" stroke-width="3.5" stroke-linecap="round" stroke-linejoin="round"/>
<path d="M51 91.2041V95.2998" stroke="#1A1A1A" stroke-width="3.5" stroke-linecap="round" stroke-linejoin="round"/>
<path d="M6.86328 51H10.9589" stroke="#1A1A1A" stroke-width="3.5" stroke-linecap="round" stroke-linejoin="round"/>
<path d="M91.043 51H95.1386" stroke="#1A1A1A" stroke-width="3.5" stroke-linecap="round" stroke-linejoin="round"/>
<path d="M19.8496 19.9033L22.7446 22.7983" stroke="#1A1A1A" stroke-width="3.5" stroke-linecap="round" stroke-linejoin="round"/>
<path d="M79.373 79.1973L82.2681 82.0945" stroke="#1A1A1A" stroke-width="3.5" stroke-linecap="round" stroke-linejoin="round"/>
<path d="M19.7344 81.98L22.6316 79.085" stroke="#1A1A1A" stroke-width="3.5" stroke-linecap="round" stroke-linejoin="round"/>
<path d="M79.2598 22.6853L82.1548 19.7881" stroke="#1A1A1A" stroke-width="3.5" stroke-linecap="round" stroke-linejoin="round"/>
</svg>
