<?xml version="1.0" encoding="UTF-8"?>
<svg id="Calque_2" data-name="Calque 2" xmlns="http://www.w3.org/2000/svg" viewBox="0 0 135.28 54.24">
  <defs>
    <style>
      .cls-1 {
        stroke-width: 0px;
      }
    </style>
  </defs>
  <g id="LOGOTYPZ">
    <g>
      <g>
        <path class="cls-1" d="m73.68,3.88c-1.14-.51-2.5-.77-4.07-.77h-8.09v16.8h5.66v-4.13h2.42c1.57,0,2.92-.26,4.07-.78,1.14-.52,2.03-1.25,2.65-2.2.62-.94.94-2.06.94-3.36s-.31-2.42-.94-3.37-1.51-1.68-2.65-2.2Zm-2.69,7.01c-.38.35-.96.53-1.74.53h-2.06v-3.94h2.06c.78,0,1.36.18,1.74.53.38.35.56.83.56,1.44s-.19,1.09-.56,1.44Z"/>
        <path class="cls-1" d="m87.39,20.3c2.58,0,4.58-.7,6.02-2.09,1.44-1.39,2.16-3.34,2.16-5.86V3.11h-5.57v9.07c0,1.28-.23,2.19-.68,2.72s-1.08.8-1.88.8-1.41-.27-1.87-.8-.7-1.44-.7-2.72V3.11h-5.66v9.24c0,2.51.72,4.46,2.16,5.86,1.44,1.39,3.45,2.09,6.02,2.09Z"/>
        <path class="cls-1" d="m103.83,15.69h1.54l2.85,4.22h6.05l-3.53-5.18c.94-.48,1.69-1.12,2.24-1.94.62-.94.94-2.05.94-3.35s-.31-2.42-.94-3.37-1.51-1.68-2.65-2.2c-1.14-.51-2.5-.77-4.07-.77h-8.09v16.8h5.66v-4.22Zm3.8-7.68c.38.35.56.83.56,1.44s-.19,1.09-.56,1.44c-.38.35-.96.53-1.74.53h-2.06v-3.94h2.06c.78,0,1.36.18,1.74.53Z"/>
        <polygon class="cls-1" points="130.01 15.64 121.61 15.64 121.61 13.43 128.72 13.43 128.72 9.35 121.61 9.35 121.61 7.38 129.7 7.38 129.7 3.11 116.05 3.11 116.05 19.91 130.01 19.91 130.01 15.64"/>
        <path class="cls-1" d="m73.52,31.21c-1.14-.51-2.5-.77-4.07-.77h-8.09v16.8h5.66v-4.13h2.42c1.57,0,2.92-.26,4.07-.78,1.14-.52,2.03-1.25,2.65-2.2.62-.95.94-2.06.94-3.36s-.31-2.42-.94-3.37c-.62-.95-1.51-1.68-2.65-2.2Zm-2.69,7.01c-.38.35-.96.53-1.74.53h-2.06v-3.94h2.06c.78,0,1.36.18,1.74.53s.56.83.56,1.44-.19,1.09-.56,1.44Z"/>
        <rect class="cls-1" x="79.2" y="30.44" width="5.66" height="16.8"/>
        <polygon class="cls-1" points="104.35 30.44 98.25 30.44 95.47 34.66 92.61 30.44 86.25 30.44 92.11 38.76 86.04 47.24 92.49 47.24 95.32 42.75 98.23 47.24 104.71 47.24 98.51 38.56 104.35 30.44"/>
        <polygon class="cls-1" points="111.45 40.76 118.56 40.76 118.56 36.68 111.45 36.68 111.45 34.71 119.54 34.71 119.54 30.44 105.88 30.44 105.88 47.24 119.85 47.24 119.85 42.97 111.45 42.97 111.45 40.76"/>
        <polygon class="cls-1" points="127.7 42.85 127.7 30.44 122.04 30.44 122.04 47.24 135.28 47.24 135.28 42.85 127.7 42.85"/>
      </g>
      <rect class="cls-1" x="6.36" y="11.83" width="30.69" height="30.69" transform="translate(-12.86 23.3) rotate(-45)"/>
      <polygon class="cls-1" points="54.13 27.11 27.02 0 22.56 4.46 45.14 27.05 22.46 49.73 26.97 54.24 49.66 31.56 49.67 31.57 54.13 27.11"/>
    </g>
  </g>
</svg>